<?xml version="1.0" encoding="UTF-8" standalone="no"?>
<!-- Created with Inkscape (http://www.inkscape.org/) -->

<svg
   width="25.4mm"
   height="128.5mm"
   viewBox="0 0 25.4 128.5"
   version="1.1"
   id="svg8"
   inkscape:version="1.3.2 (091e20e, 2023-11-25, custom)"
   sodipodi:docname="SDComparator.svg"
   xml:space="preserve"
   xmlns:inkscape="http://www.inkscape.org/namespaces/inkscape"
   xmlns:sodipodi="http://sodipodi.sourceforge.net/DTD/sodipodi-0.dtd"
   xmlns="http://www.w3.org/2000/svg"
   xmlns:svg="http://www.w3.org/2000/svg"
   xmlns:rdf="http://www.w3.org/1999/02/22-rdf-syntax-ns#"
   xmlns:cc="http://creativecommons.org/ns#"
   xmlns:dc="http://purl.org/dc/elements/1.1/"><defs
     id="defs2"><pattern
       id="EMFhbasepattern"
       patternUnits="userSpaceOnUse"
       width="6"
       height="6"
       x="0"
       y="0" /></defs><sodipodi:namedview
     id="base"
     pagecolor="#ffffff"
     bordercolor="#666666"
     borderopacity="1.0"
     inkscape:pageopacity="0.0"
     inkscape:pageshadow="2"
     inkscape:zoom="4.315694"
     inkscape:cx="108.44142"
     inkscape:cy="410.24688"
     inkscape:document-units="mm"
     inkscape:current-layer="layer3"
     showgrid="false"
     inkscape:window-width="3840"
     inkscape:window-height="1529"
     inkscape:window-x="-8"
     inkscape:window-y="-8"
     inkscape:window-maximized="1"
     showguides="true"
     inkscape:showpageshadow="2"
     inkscape:pagecheckerboard="0"
     inkscape:deskcolor="#d1d1d1" /><metadata
     id="metadata5"><rdf:RDF><cc:Work
         rdf:about=""><dc:format>image/svg+xml</dc:format><dc:type
           rdf:resource="http://purl.org/dc/dcmitype/StillImage" /></cc:Work></rdf:RDF></metadata><g
     inkscape:label="Layer 1"
     inkscape:groupmode="layer"
     id="layer1"
     transform="translate(0,-168.5)"
     style="display:inline;opacity:1"><rect
       style="fill:#9fb6b1;fill-opacity:1;stroke-width:0.0836686"
       id="rect815"
       width="25.4"
       height="128.5"
       x="0"
       y="168.5"
       inkscape:label="rect815"
       sodipodi:insensitive="true" /></g><g
     inkscape:groupmode="layer"
     id="layer3"
     inkscape:label="labels"
     style="display:inline"><path
       d="m 5.1551094,4.7585745 q -0.1116108,0 -0.1880848,-0.076474 -0.076474,-0.076474 -0.076474,-0.1880848 V 2.3775456 q 0,-0.1095438 0.076474,-0.1860179 0.076474,-0.078541 0.1880848,-0.078541 h 0.2645587 q 0.1095439,0 0.1860179,0.078541 0.078541,0.076474 0.078541,0.1860179 V 3.1712219 H 5.4196681 V 2.3775456 H 5.1551094 V 4.4940157 H 5.4196681 V 3.7003394 h 0.2645588 v 0.7936763 q 0,0.1116108 -0.078541,0.1880848 -0.076474,0.076474 -0.1860179,0.076474 z M 6.4779032,4.4940157 V 2.3775456 H 6.2133444 V 4.4940157 Z M 6.2133444,4.7585745 q -0.1116107,0 -0.1880847,-0.076474 -0.076474,-0.076474 -0.076474,-0.1880848 V 2.3775456 q 0,-0.1095438 0.076474,-0.1860179 0.076474,-0.078541 0.1880847,-0.078541 h 0.2645588 q 0.1095438,0 0.1860179,0.078541 0.078541,0.076474 0.078541,0.1860179 v 2.1164701 q 0,0.1116108 -0.078541,0.1880848 -0.076474,0.076474 -0.1860179,0.076474 z m 0.7936763,0 V 2.3775456 q 0,-0.1095438 0.076474,-0.1860179 0.076474,-0.078541 0.1880848,-0.078541 H 7.800697 q 0.1095439,0 0.1860179,0.078541 0.078541,0.076474 0.078541,0.1860179 V 4.7585745 H 7.800697 V 2.3775456 H 7.6684176 V 4.7585745 H 7.4038589 V 2.3775456 H 7.2715795 V 4.7585745 Z M 8.858932,3.1712219 V 2.3775456 H 8.5943732 V 3.1712219 Z M 8.3298144,4.7585745 V 2.3775456 q 0,-0.1095438 0.076474,-0.1860179 0.076474,-0.078541 0.1880847,-0.078541 H 8.858932 q 0.1095438,0 0.1860178,0.078541 0.078541,0.076474 0.078541,0.1860179 v 0.7936763 q 0,0.1116107 -0.078541,0.1880848 -0.076474,0.076474 -0.1860178,0.076474 H 8.5943732 V 4.7585745 Z M 9.9171671,3.1712219 V 2.3775456 H 9.6526084 V 3.1712219 Z M 9.3880496,4.7585745 V 2.3775456 q 0,-0.1095438 0.076474,-0.1860179 0.076474,-0.078541 0.1880848,-0.078541 h 0.2645587 q 0.1095439,0 0.1860179,0.078541 0.07854,0.076474 0.07854,0.1860179 V 4.7585745 H 9.9171671 V 3.4357807 H 9.6526084 V 4.7585745 Z M 10.975402,3.1712219 V 2.3775456 H 10.710844 V 3.1712219 Z M 10.446285,4.7585745 V 2.1129869 h 0.529117 q 0.109544,0 0.186018,0.078541 0.07854,0.076474 0.07854,0.1860179 v 0.7936763 q 0,0.055805 -0.03927,0.095076 -0.03927,0.037204 -0.09301,0.037204 0.05374,0 0.09301,0.03927 0.03927,0.03927 0.03927,0.093009 V 4.7585745 H 10.975402 V 3.4357807 H 10.710844 V 4.7585745 Z M 12.033637,3.1712219 V 2.3775456 H 11.769078 V 3.1712219 Z M 11.504519,4.7585745 V 2.3775456 q 0,-0.1095438 0.07647,-0.1860179 0.07647,-0.078541 0.188085,-0.078541 h 0.264559 q 0.109544,0 0.186018,0.078541 0.07854,0.076474 0.07854,0.1860179 V 4.7585745 H 12.033637 V 3.4357807 h -0.264559 v 1.3227938 z m 1.322794,0 V 2.3775456 H 12.562755 V 2.1129869 h 0.793676 V 2.3775456 H 13.091872 V 4.7585745 Z M 14.150107,4.4940157 V 2.3775456 h -0.264558 v 2.1164701 z m -0.264558,0.2645588 q -0.111611,0 -0.188085,-0.076474 -0.07647,-0.076474 -0.07647,-0.1880848 V 2.3775456 q 0,-0.1095438 0.07647,-0.1860179 0.07647,-0.078541 0.188085,-0.078541 h 0.264558 q 0.109544,0 0.186018,0.078541 0.07854,0.076474 0.07854,0.1860179 v 2.1164701 q 0,0.1116108 -0.07854,0.1880848 -0.07647,0.076474 -0.186018,0.076474 z M 15.208342,3.1712219 V 2.3775456 H 14.943784 V 3.1712219 Z M 14.679225,4.7585745 V 2.1129869 h 0.529117 q 0.109544,0 0.186018,0.078541 0.07854,0.076474 0.07854,0.1860179 v 0.7936763 q 0,0.055805 -0.03927,0.095076 -0.03927,0.037204 -0.09301,0.037204 0.05374,0 0.09301,0.03927 0.03927,0.03927 0.03927,0.093009 V 4.7585745 H 15.208342 V 3.4357807 h -0.264558 v 1.3227938 z"
       id="text53"
       style="font-size:4.23294px;font-family:'BrightonTwo SmallCaps NBP';-inkscape-font-specification:'BrightonTwo SmallCaps NBP, Normal';stroke-width:0.329993"
       transform="scale(1.2473327,0.80171072)"
       aria-label="COMPARATOR" /><path
       d="m 2.6298295,97.575944 v 1.761066 h 0.6293551 v 0.214488 H 2.3842963 v -1.975554 z m 2.1872232,0 v 0.206022 H 4.1199643 v 0.646289 h 0.6265329 v 0.206022 H 4.1199643 v 0.711199 h 0.6970884 v 0.206022 H 3.8744312 v -1.975554 z m 0.4487356,0 h 0.2483554 l 0.3386664,1.727199 0.3640664,-1.727199 H 6.4595874 L 6.0164988,99.551498 H 5.6806547 Z m 2.5992672,0 v 0.206022 H 7.1679672 v 0.646289 H 7.7945 v 0.206022 H 7.1679672 v 0.711199 h 0.6970883 v 0.206022 H 6.922434 v -1.975554 z m 0.8607799,0 v 1.761066 h 0.6293551 v 0.214488 H 8.4803022 v -1.975554 z m 2.1928676,1.495777 q 0,0.239889 -0.132644,0.361244 -0.129822,0.118533 -0.375355,0.118533 H 10.009948 V 99.33701 h 0.428978 q 0.104422,0 0.169333,-0.06209 0.06491,-0.06209 0.06491,-0.149578 v -0.293511 q 0,-0.08467 -0.04516,-0.135466 -0.04233,-0.05362 -0.129822,-0.05362 h -0.08467 q -0.208845,0 -0.3302,-0.121356 Q 9.9619705,98.39721 9.9619705,98.162966 v -0.107244 q 0,-0.239889 0.1298225,-0.358422 0.132644,-0.121356 0.378177,-0.121356 h 0.403578 v 0.214489 h -0.4318 q -0.104422,0 -0.169333,0.06209 -0.06491,0.06209 -0.06491,0.149578 v 0.214488 q 0,0.08749 0.05644,0.146756 0.05644,0.05644 0.146756,0.05644 h 0.08467 q 0.200378,0 0.310444,0.115711 0.112889,0.115711 0.112889,0.349955 z"
       id="text2525-5-40-0"
       style="font-size:2.82222px;line-height:1.25;font-family:'Share Tech Mono';-inkscape-font-specification:'Share Tech Mono, Normal';letter-spacing:0px;word-spacing:0px;stroke:#000000;stroke-width:0.165"
       aria-label="LEVELS" /><path
       d="M 2.2496944,6.0925001 V 7.8535655 H 2.8790495 V 8.0680542 H 2.0041613 V 6.0925001 Z m 2.1872232,0 V 6.2985222 H 3.7398293 V 6.9448106 H 4.3663621 V 7.1508327 H 3.7398293 V 7.8620321 H 4.4369176 V 8.0680542 H 3.4942961 V 6.0925001 Z m 0.4487356,0 H 5.1340086 L 5.472675,7.8196988 5.8367414,6.0925001 H 6.0794523 L 5.6363638,8.0680542 H 5.3005196 Z m 2.5992673,0 V 6.2985222 H 6.7878321 V 6.9448106 H 7.414365 V 7.1508327 H 6.7878321 V 7.8620321 H 7.4849205 V 8.0680542 H 6.5422989 V 6.0925001 Z m 0.8607798,0 V 7.8535655 H 8.9750554 V 8.0680542 H 8.1001672 V 6.0925001 Z m 2.1928677,1.4957767 q 0,0.2398887 -0.132644,0.3612442 -0.129822,0.1185332 -0.375356,0.1185332 H 9.6298132 V 7.8535655 h 0.4289778 q 0.104422,0 0.169333,-0.062089 0.06491,-0.062089 0.06491,-0.1495776 V 7.3483881 q 0,-0.084667 -0.04516,-0.1354666 -0.04233,-0.053622 -0.129822,-0.053622 h -0.08467 q -0.2088446,0 -0.3302001,-0.1213554 Q 9.5818355,6.9137662 9.5818355,6.6795219 V 6.5722776 q 0,-0.2398888 0.1298221,-0.358422 Q 9.844302,6.0925001 10.089835,6.0925001 h 0.403578 v 0.2144888 h -0.4318 q -0.1044222,0 -0.1693333,0.062089 -0.064911,0.062089 -0.064911,0.1495777 v 0.2144887 q 0,0.087489 0.056444,0.1467554 0.056444,0.056444 0.146755,0.056444 h 0.08467 q 0.200378,0 0.310444,0.1157111 0.112889,0.115711 0.112889,0.3499553 z"
       id="text2525-5-40-0-7"
       style="font-size:2.82222px;line-height:1.25;font-family:'Share Tech Mono';-inkscape-font-specification:'Share Tech Mono, Normal';letter-spacing:0px;word-spacing:0px;stroke:#000000;stroke-width:0.165"
       aria-label="LEVELS" /><path
       d="m 16.792717,8.0680542 q -0.245534,0 -0.378178,-0.1185332 Q 16.284717,7.8281655 16.284717,7.5882768 V 6.5722776 q 0,-0.2398888 0.129822,-0.358422 0.132644,-0.1213555 0.378178,-0.1213555 h 0.397933 v 0.2144888 h -0.426156 q -0.104422,0 -0.169333,0.062089 -0.06491,0.062089 -0.06491,0.1495777 V 7.641899 q 0,0.087489 0.06491,0.1495776 0.06491,0.062089 0.169333,0.062089 h 0.276578 V 7.2411437 H 16.795539 V 7.0294772 h 0.479777 v 1.038577 z m 1.238957,-0.499533 -0.110067,0.499533 H 17.67043 l 0.476955,-1.9755541 h 0.324555 l 0.468489,1.9755541 h -0.251178 l -0.107244,-0.499533 z m 0.505177,-0.2116665 -0.231422,-1.078088 -0.2286,1.078088 z m 1.168402,0.7111995 V 6.3069889 H 19.25652 V 6.0925001 h 1.142999 v 0.2144888 h -0.448733 v 1.7610653 z m 2.11949,-1.9755541 v 0.2060221 h -0.697089 v 0.6462884 h 0.626533 v 0.2060221 h -0.626533 v 0.7111994 h 0.697089 V 8.0680542 H 20.882121 V 6.0925001 Z m 1.529646,1.4957767 q 0,0.2398887 -0.132645,0.3612442 -0.129822,0.1185332 -0.375355,0.1185332 H 22.445634 V 7.8535655 h 0.428977 q 0.104423,0 0.169334,-0.062089 0.06491,-0.062089 0.06491,-0.1495776 V 7.3483881 q 0,-0.084667 -0.04516,-0.1354666 -0.04233,-0.053622 -0.129822,-0.053622 h -0.08467 q -0.208844,0 -0.330199,-0.1213554 -0.121356,-0.1241777 -0.121356,-0.358422 V 6.5722776 q 0,-0.2398888 0.129822,-0.358422 0.132645,-0.1213555 0.378178,-0.1213555 h 0.403577 v 0.2144888 h -0.431799 q -0.104423,0 -0.169334,0.062089 -0.06491,0.062089 -0.06491,0.1495777 v 0.2144887 q 0,0.087489 0.05645,0.1467554 0.05644,0.056444 0.146755,0.056444 h 0.08467 q 0.200377,0 0.310444,0.1157111 0.112889,0.115711 0.112889,0.3499553 z"
       id="text2525-5-40-0-7-4"
       style="font-size:2.82222px;line-height:1.25;font-family:'Share Tech Mono';-inkscape-font-specification:'Share Tech Mono, Normal';letter-spacing:0px;word-spacing:0px;stroke:#000000;stroke-width:0.165"
       aria-label="GATES" /><path
       inkscape:export-ydpi="150.22649"
       inkscape:export-xdpi="150.22649"
       inkscape:export-filename="/home/vortico/pics/tmp/LFOs.png"
       style="display:inline;fill:#00609a;fill-opacity:1;fill-rule:nonzero;stroke:none;stroke-width:0.353458"
       d="m 22.685,111.92812 c 0,-0.50898 -0.45009,-0.92612 -1.00096,-0.92612 h -7.697038 c -0.550878,0 -1.001001,0.41714 -1.001001,0.92612 v 11.26776 c 0,0.509 0.450123,0.92612 1.001001,0.92612 h 7.697038 c 0.55087,0 1.00096,-0.41712 1.00096,-0.92612 z m 0,0"
       id="path36485-4-6-2-0"
       inkscape:connector-curvature="0" /><path
       d="m 16.873121,113.78029 q 0,0.23988 -0.132644,0.36124 -0.129822,0.11853 -0.375356,0.11853 h -0.112888 q -0.245534,0 -0.378178,-0.11853 -0.129822,-0.12136 -0.129822,-0.36124 v -1.016 q 0,-0.23989 0.129822,-0.35843 0.132644,-0.12135 0.378178,-0.12135 h 0.112888 q 0.245534,0 0.375356,0.12135 0.132644,0.11854 0.132644,0.35843 z m -0.245533,-1.06963 q 0,-0.0875 -0.06491,-0.14957 -0.06491,-0.0621 -0.169333,-0.0621 H 16.22401 q -0.104422,0 -0.169333,0.0621 -0.06491,0.0621 -0.06491,0.14957 v 1.12325 q 0,0.0875 0.06491,0.14958 0.06491,0.0621 0.169333,0.0621 h 0.169334 q 0.104422,0 0.169333,-0.0621 0.06491,-0.0621 0.06491,-0.14958 z m 1.746957,1.06963 q 0,0.23988 -0.132645,0.36124 -0.129822,0.11853 -0.375355,0.11853 h -0.07055 q -0.245534,0 -0.378178,-0.11853 -0.129822,-0.12136 -0.129822,-0.36124 v -1.49578 h 0.245533 v 1.5494 q 0,0.0875 0.06491,0.14958 0.06491,0.0621 0.169333,0.0621 h 0.127 q 0.104422,0 0.169334,-0.0621 0.06491,-0.0621 0.06491,-0.14958 v -1.5494 h 0.245533 z m 0.857957,0.47977 V 112.499 h -0.448733 v -0.21449 h 1.142999 v 0.21449 h -0.448733 v 1.76106 z"
       id="text2525-4-0"
       style="font-size:2.82222px;line-height:1.25;font-family:'Share Tech Mono';-inkscape-font-specification:'Share Tech Mono, Normal';letter-spacing:0px;word-spacing:0px;fill:#ffffff;stroke:#ffffff;stroke-width:0.165"
       aria-label="OUT" /><path
       d="m 5.6862994,114.05404 v -1.56351 H 5.4322996 v -0.20602 h 0.7535327 v 0.20602 H 5.9318325 v 1.56351 h 0.2539998 v 0.20602 H 5.4322996 v -0.20602 z m 1.3377349,0.20602 H 6.7954345 v -1.97555 h 0.4007553 l 0.4459107,1.76671 v -1.76671 h 0.2285999 v 1.97555 H 7.4671229 l -0.4430886,-1.76671 z"
       id="text2525-5-40-0-0-5"
       style="font-size:2.82222px;line-height:1.25;font-family:'Share Tech Mono';-inkscape-font-specification:'Share Tech Mono, Normal';letter-spacing:0px;word-spacing:0px;stroke:#000000;stroke-width:0.165"
       aria-label="IN" /><rect
       style="display:inline;fill:#9fb6b1;fill-opacity:1;stroke-width:0.327"
       id="rect5-6-86-8"
       width="7.8732748"
       height="0.97400111"
       x="2.0788355"
       y="111.228" /><rect
       style="display:inline;fill:#9fb6b1;fill-opacity:1;stroke-width:0.327"
       id="rect5-6-86-8-8"
       width="8.7861366"
       height="0.97400111"
       x="13.81443"
       y="96.51944" /><rect
       style="display:inline;fill:#9fb6b1;fill-opacity:1;stroke-width:0.327"
       id="rect5-6-86-8-8-8"
       width="8.7861366"
       height="0.97400111"
       x="14.91117"
       y="5.0359988" /><rect
       style="display:inline;fill:#9fb6b1;fill-opacity:1;stroke-width:0.327"
       id="rect5-6-86-8-8-7"
       width="8.7861366"
       height="0.52751678"
       x="14.355433"
       y="8.1505547" /><rect
       style="display:inline;fill:#9fb6b1;fill-opacity:1;stroke-width:0.327"
       id="rect5-6-86-6"
       width="7.8732748"
       height="0.97400111"
       x="2.0788355"
       y="114.34258" /><rect
       style="display:inline;fill:#9fb6b1;fill-opacity:1;stroke-width:0.327"
       id="rect5-6-86-6-3"
       width="7.8732748"
       height="0.97400111"
       x="14.270861"
       y="99.633995" /><path
       d="m 16.822321,99.105588 q 0,0.242711 -0.112889,0.34431 -0.110066,0.1016 -0.366888,0.1016 h -0.581378 v -1.975554 h 0.547511 q 0.254,0 0.383822,0.104422 0.129822,0.1016 0.129822,0.335845 z m -0.245533,-1.114777 q 0,-0.09313 -0.05645,-0.146756 -0.05644,-0.05644 -0.149577,-0.05644 h -0.364067 v 1.552221 h 0.361245 q 0.107244,0 0.158044,-0.04798 0.0508,-0.0508 0.0508,-0.158044 z m 1.803401,1.08091 q 0,0.239889 -0.132644,0.361244 -0.129822,0.118533 -0.375356,0.118533 h -0.112888 q -0.245533,0 -0.378178,-0.118533 -0.129822,-0.121355 -0.129822,-0.361244 v -1.015999 q 0,-0.239889 0.129822,-0.358422 0.132645,-0.121356 0.378178,-0.121356 h 0.112888 q 0.245534,0 0.375356,0.121356 0.132644,0.118533 0.132644,0.358422 z M 18.134656,98.0021 q 0,-0.08749 -0.06491,-0.149578 -0.06491,-0.06209 -0.169333,-0.06209 h -0.169334 q -0.104422,0 -0.169333,0.06209 -0.06491,0.06209 -0.06491,0.149578 v 1.123243 q 0,0.08749 0.06491,0.149578 0.06491,0.06209 0.169333,0.06209 h 0.169334 q 0.104422,0 0.169333,-0.06209 0.06491,-0.06209 0.06491,-0.149578 z m 1.080913,1.549398 v -1.761065 h -0.448733 v -0.214489 h 1.142999 v 0.214489 h -0.448733 v 1.761065 z"
       id="text2525-5-40-0-0-1"
       style="font-size:2.82222px;line-height:1.25;font-family:'Share Tech Mono';-inkscape-font-specification:'Share Tech Mono, Normal';letter-spacing:0px;word-spacing:-0.529167px;stroke:#000000;stroke-width:0.165"
       aria-label="DOT" /></g></svg>
