<?xml version="1.0" encoding="UTF-8" standalone="no"?>
<!-- Created with Inkscape (http://www.inkscape.org/) -->

<svg
   width="35.560001mm"
   height="128.5mm"
   viewBox="0 0 35.560002 128.5"
   version="1.1"
   id="svg8"
   inkscape:version="1.3.2 (091e20e, 2023-11-25, custom)"
   sodipodi:docname="SDFormation.svg"
   xmlns:inkscape="http://www.inkscape.org/namespaces/inkscape"
   xmlns:sodipodi="http://sodipodi.sourceforge.net/DTD/sodipodi-0.dtd"
   xmlns="http://www.w3.org/2000/svg"
   xmlns:svg="http://www.w3.org/2000/svg"
   xmlns:rdf="http://www.w3.org/1999/02/22-rdf-syntax-ns#"
   xmlns:cc="http://creativecommons.org/ns#"
   xmlns:dc="http://purl.org/dc/elements/1.1/">
  <defs
     id="defs2" />
  <sodipodi:namedview
     id="base"
     pagecolor="#ffffff"
     bordercolor="#666666"
     borderopacity="1.0"
     inkscape:pageopacity="0.0"
     inkscape:pageshadow="2"
     inkscape:zoom="4.0000002"
     inkscape:cx="68.874997"
     inkscape:cy="367.49998"
     inkscape:document-units="mm"
     inkscape:current-layer="layer3"
     showgrid="false"
     inkscape:window-width="1875"
     inkscape:window-height="1338"
     inkscape:window-x="422"
     inkscape:window-y="108"
     inkscape:window-maximized="0"
     showguides="true"
     inkscape:showpageshadow="2"
     inkscape:pagecheckerboard="0"
     inkscape:deskcolor="#d1d1d1" />
  <metadata
     id="metadata5">
    <rdf:RDF>
      <cc:Work
         rdf:about="">
        <dc:format>image/svg+xml</dc:format>
        <dc:type
           rdf:resource="http://purl.org/dc/dcmitype/StillImage" />
      </cc:Work>
    </rdf:RDF>
  </metadata>
  <g
     inkscape:label="Layer 1"
     inkscape:groupmode="layer"
     id="layer1"
     transform="translate(0,-168.5)"
     style="display:inline;opacity:1">
    <rect
       style="fill:#9fb6b1;fill-opacity:1;stroke-width:0.0836686"
       id="rect815"
       width="35.560001"
       height="128.5"
       x="0"
       y="168.5"
       sodipodi:insensitive="true" />
  </g>
  <g
     inkscape:groupmode="layer"
     id="layer3"
     inkscape:label="labels"
     style="display:inline">
    <path
       d="M 9.756918,4.7585745 V 2.3775456 q 0,-0.1095438 0.076474,-0.1860179 0.076474,-0.078541 0.188085,-0.078541 h 0.529117 v 0.2645587 h -0.529117 v 0.7936763 h 0.529117 V 3.4357807 H 10.021477 V 4.7585745 Z M 11.344271,4.4940157 V 2.3775456 h -0.264559 v 2.1164701 z m -0.264559,0.2645588 q -0.111611,0 -0.188085,-0.076474 -0.07647,-0.076474 -0.07647,-0.1880848 V 2.3775456 q 0,-0.1095438 0.07647,-0.1860179 0.07647,-0.078541 0.188085,-0.078541 h 0.264559 q 0.109543,0 0.186017,0.078541 0.07854,0.076474 0.07854,0.1860179 v 2.1164701 q 0,0.1116108 -0.07854,0.1880848 -0.07647,0.076474 -0.186017,0.076474 z M 12.402506,3.1712219 V 2.3775456 H 12.137947 V 3.1712219 Z M 11.873388,4.7585745 V 2.1129869 h 0.529118 q 0.109543,0 0.186017,0.078541 0.07854,0.076474 0.07854,0.1860179 v 0.7936763 q 0,0.055805 -0.03927,0.095076 -0.03927,0.037204 -0.09301,0.037204 0.05374,0 0.09301,0.03927 0.03927,0.03927 0.03927,0.093009 V 4.7585745 H 12.402506 V 3.4357807 h -0.264559 v 1.3227938 z m 1.058235,0 V 2.3775456 q 0,-0.1095438 0.07647,-0.1860179 0.07647,-0.078541 0.188085,-0.078541 h 0.529117 q 0.109544,0 0.186018,0.078541 0.07854,0.076474 0.07854,0.1860179 V 4.7585745 H 13.725299 V 2.3775456 H 13.59302 V 4.7585745 H 13.328461 V 2.3775456 H 13.196182 V 4.7585745 Z M 14.783534,3.1712219 V 2.3775456 H 14.518976 V 3.1712219 Z M 14.254417,4.7585745 V 2.3775456 q 0,-0.1095438 0.07647,-0.1860179 0.07647,-0.078541 0.188085,-0.078541 h 0.264558 q 0.109544,0 0.186018,0.078541 0.07854,0.076474 0.07854,0.1860179 V 4.7585745 H 14.783534 V 3.4357807 h -0.264558 v 1.3227938 z m 1.322794,0 V 2.3775456 H 15.312652 V 2.1129869 h 0.793676 V 2.3775456 H 15.84177 v 2.3810289 z m 0.793676,0 V 2.1129869 h 0.264559 V 4.7585745 Z M 17.429122,4.4940157 V 2.3775456 h -0.264559 v 2.1164701 z m -0.264559,0.2645588 q -0.111611,0 -0.188085,-0.076474 -0.07647,-0.076474 -0.07647,-0.1880848 V 2.3775456 q 0,-0.1095438 0.07647,-0.1860179 0.07647,-0.078541 0.188085,-0.078541 h 0.264559 q 0.109544,0 0.186018,0.078541 0.07854,0.076474 0.07854,0.1860179 v 2.1164701 q 0,0.1116108 -0.07854,0.1880848 -0.07647,0.076474 -0.186018,0.076474 z m 0.793677,0 V 2.3775456 q 0,-0.1095438 0.07647,-0.1860179 0.07647,-0.078541 0.188084,-0.078541 h 0.264559 q 0.109544,0 0.186018,0.078541 0.07854,0.076474 0.07854,0.1860179 V 4.7585745 H 18.487357 V 2.3775456 h -0.264559 v 2.3810289 z"
       id="text53"
       style="font-size:4.23294px;font-family:'BrightonTwo SmallCaps NBP';-inkscape-font-specification:'BrightonTwo SmallCaps NBP, Normal';stroke-width:0.329993"
       transform="scale(1.2473327,0.80171072)"
       aria-label="FORMATION" />
    <text
       xml:space="preserve"
       style="font-style:normal;font-variant:normal;font-weight:normal;font-stretch:normal;font-size:3.52778px;line-height:1.25;font-family:Mandatory;-inkscape-font-specification:'Mandatory, Normal';font-variant-ligatures:normal;font-variant-caps:normal;font-variant-numeric:normal;font-feature-settings:normal;text-align:start;letter-spacing:0px;word-spacing:0px;writing-mode:lr-tb;text-anchor:start;fill:#000000;fill-opacity:1;stroke:none;stroke-width:0.264583"
       x="74.32386"
       y="113.58712"
       id="text1400" />
    <rect
       style="display:inline;fill:#000000;fill-opacity:1;stroke-width:0.0427425"
       id="rect1226-9-0-8-8-6-0"
       width="4.7033763"
       height="0.2976411"
       x="96.249268"
       y="-6.7457376"
       rx="0.022736944"
       transform="rotate(90)" />
    <rect
       style="display:inline;fill:#000000;fill-opacity:1;stroke-width:0.0427425"
       id="rect1226-9-0-8-8-6-7"
       width="4.7033763"
       height="0.2976411"
       x="96.646141"
       y="-17.928904"
       rx="0.022736944"
       transform="rotate(90)" />
    <rect
       style="display:inline;fill:#000000;fill-opacity:1;stroke-width:0.0427425"
       id="rect1226-9-0-8-8-6-1"
       width="4.7033763"
       height="0.2976411"
       x="96.646141"
       y="-29.111904"
       rx="0.022736944"
       transform="rotate(90)" />
    <path
       d="m 3.2384686,87.5957 q 0,0.239889 -0.1326443,0.361244 -0.1298222,0.118534 -0.3753553,0.118534 H 2.3297137 v -0.214489 h 0.4289775 q 0.1044221,0 0.1693332,-0.06209 0.064911,-0.06209 0.064911,-0.149578 v -0.293511 q 0,-0.08467 -0.045156,-0.135466 -0.042333,-0.05362 -0.1298221,-0.05362 h -0.084667 q -0.2088443,0 -0.3301997,-0.121356 Q 2.281736,86.92119 2.281736,86.686945 v -0.107244 q 0,-0.239889 0.1298221,-0.358422 0.1326444,-0.121355 0.3781775,-0.121355 h 0.4035775 v 0.214488 H 2.7615134 q -0.1044221,0 -0.1693332,0.06209 -0.064911,0.06209 -0.064911,0.149578 v 0.214488 q 0,0.08749 0.056444,0.146756 0.056444,0.05644 0.1467555,0.05644 h 0.084667 q 0.2003776,0 0.3104442,0.115711 0.1128888,0.115711 0.1128888,0.349956 z m 1.5578681,-0.733777 q 0,0.2286 -0.1213554,0.338666 -0.1213555,0.107245 -0.358422,0.107245 H 4.0230484 v 0.767644 H 3.7775153 v -1.975554 h 0.5333996 q 0.2398887,0 0.3612441,0.107244 0.1241777,0.104422 0.1241777,0.333022 z M 4.5508036,86.51479 q 0,-0.107244 -0.0508,-0.155222 -0.047978,-0.04798 -0.1552221,-0.04798 H 4.0230484 v 0.784577 h 0.3217331 q 0.1072444,0 0.1552221,-0.04798 0.0508,-0.0508 0.0508,-0.158044 z m 0.9398019,0.742244 v 0.818444 H 5.2450723 v -1.975554 h 0.5305774 q 0.2398887,0 0.3612442,0.107244 0.1241777,0.104422 0.1241777,0.333022 v 0.270933 q 0,0.318911 -0.2539998,0.397933 l 0.3922886,0.866422 H 6.1312495 L 5.7671831,87.257034 Z M 6.0155384,86.51479 q 0,-0.107244 -0.0508,-0.155222 -0.047978,-0.04798 -0.1552221,-0.04798 H 5.4906055 v 0.733777 h 0.3189109 q 0.1072443,0 0.1552221,-0.04798 0.0508,-0.0508 0.0508,-0.158045 z m 1.7892901,-0.414866 v 0.206022 H 7.1077401 v 0.646288 H 7.734273 v 0.206022 H 7.1077401 v 0.7112 h 0.6970884 v 0.206022 H 6.862207 V 86.099924 Z M 8.583764,87.575945 8.4736974,88.075478 H 8.2225198 L 8.699475,86.099924 h 0.3245553 l 0.4684885,1.975554 H 9.2413413 L 9.1340969,87.575945 Z M 9.0889414,87.364278 8.8575193,86.28619 8.6289195,87.364278 Z m 1.8231566,0.265289 q 0,0.242711 -0.112889,0.344311 -0.110066,0.1016 -0.366888,0.1016 H 9.8509435 v -1.975554 h 0.5475105 q 0.254,0 0.383822,0.104422 0.129822,0.1016 0.129822,0.335844 z M 10.666565,86.51479 q 0,-0.09313 -0.05644,-0.146756 -0.05645,-0.05644 -0.149578,-0.05644 h -0.364066 v 1.552221 h 0.361244 q 0.107244,0 0.158044,-0.04798 0.0508,-0.0508 0.0508,-0.158044 z"
       id="text2525-5-40-0"
       style="font-size:2.82222px;line-height:1.25;font-family:'Share Tech Mono';-inkscape-font-specification:'Share Tech Mono, Normal';letter-spacing:0px;word-spacing:0px;stroke:#000000;stroke-width:0.165"
       aria-label="SPREAD" />
    <g
       id="text2525-5-40-0-3"
       style="font-size:2.82222px;line-height:1.25;font-family:'Share Tech Mono';-inkscape-font-specification:'Share Tech Mono, Normal';letter-spacing:0px;word-spacing:0px;stroke:#000000;stroke-width:0.165"
       aria-label="TILT">
      <path
         d="m 15.371314,88.075478 v -1.761066 h -0.448733 v -0.214488 h 1.142999 v 0.214488 h -0.448733 v 1.761066 z m 1.524001,-0.206022 v -1.56351 h -0.254 v -0.206022 h 0.753533 v 0.206022 h -0.254 v 1.56351 h 0.254 v 0.206022 h -0.753533 v -0.206022 z"
         id="path3" />
      <path
         style="letter-spacing:-0.264583px"
         d="m 18.351583,86.099924 v 1.761065 h 0.629355 v 0.214489 H 18.10605 v -1.975554 z"
         id="path4" />
      <path
         d="m 19.678735,88.075478 v -1.761066 h -0.448733 v -0.214488 h 1.142999 v 0.214488 h -0.448733 v 1.761066 z"
         id="path5" />
    </g>
    <path
       d="m 24.478039,87.257034 v 0.818444 h -0.245533 v -1.975554 h 0.530577 q 0.239889,0 0.361244,0.107244 0.124178,0.104422 0.124178,0.333022 v 0.270933 q 0,0.318911 -0.254,0.397933 l 0.392289,0.866422 h -0.268111 l -0.364067,-0.818444 z m 0.524933,-0.742244 q 0,-0.107244 -0.0508,-0.155222 -0.04798,-0.04798 -0.155222,-0.04798 h -0.318911 v 0.733777 h 0.318911 q 0.107244,0 0.155222,-0.04798 0.0508,-0.0508 0.0508,-0.158045 z m 1.176516,1.061155 -0.110067,0.499533 h -0.251177 l 0.476955,-1.975554 h 0.324555 l 0.468489,1.975554 h -0.251178 l -0.107244,-0.499533 z m 0.505177,-0.211667 -0.231422,-1.078088 -0.2286,1.078088 z m 1.114427,0.7112 h -0.228599 v -1.975554 h 0.400755 l 0.445911,1.766709 v -1.766709 h 0.2286 v 1.975554 h -0.403578 l -0.443089,-1.76671 z m 2.497316,-0.445911 q 0,0.242711 -0.112889,0.344311 -0.110067,0.1016 -0.366889,0.1016 h -0.581377 v -1.975554 h 0.547511 q 0.253999,0 0.383822,0.104422 0.129822,0.1016 0.129822,0.335844 z M 30.050875,86.51479 q 0,-0.09313 -0.05645,-0.146756 -0.05644,-0.05644 -0.149578,-0.05644 h -0.364066 v 1.552221 h 0.361244 q 0.107245,0 0.158045,-0.04798 0.0508,-0.0508 0.0508,-0.158044 z m 1.935693,1.08091 q 0,0.239889 -0.132645,0.361244 -0.129822,0.118534 -0.375355,0.118534 h -0.112889 q -0.245533,0 -0.378177,-0.118534 Q 30.85768,87.835589 30.85768,87.5957 v -1.015999 q 0,-0.239889 0.129822,-0.358422 0.132644,-0.121355 0.378177,-0.121355 h 0.112889 q 0.245533,0 0.375355,0.121355 0.132645,0.118533 0.132645,0.358422 z m -0.245533,-1.069621 q 0,-0.08749 -0.06491,-0.149578 -0.06491,-0.06209 -0.169334,-0.06209 h -0.169333 q -0.104422,0 -0.169333,0.06209 -0.06491,0.06209 -0.06491,0.149578 v 1.123243 q 0,0.08749 0.06491,0.149578 0.06491,0.06209 0.169333,0.06209 h 0.169333 q 0.104422,0 0.169334,-0.06209 0.06491,-0.06209 0.06491,-0.149578 z m 1.450271,0.886177 h -0.234244 l -0.276578,-1.109133 v 1.772355 h -0.214489 v -1.975554 h 0.392289 l 0.225778,1.010354 0.228599,-1.010354 h 0.381 v 1.975554 h -0.220133 v -1.772355 z"
       id="text2525-5-40-0-0"
       style="font-size:2.82222px;line-height:1.25;font-family:'Share Tech Mono';-inkscape-font-specification:'Share Tech Mono, Normal';letter-spacing:0.132292px;word-spacing:0px;stroke:#000000;stroke-width:0.165"
       aria-label="RANDOM" />
    <rect
       style="display:inline;fill:#9fb6b1;fill-opacity:1;stroke-width:0.327"
       id="rect5-6-8"
       width="11.081347"
       height="0.97400111"
       x="24.113764"
       y="85.043427" />
    <rect
       style="display:inline;fill:#9fb6b1;fill-opacity:1;stroke-width:0.327"
       id="rect5-6-86"
       width="7.8732748"
       height="0.97400111"
       x="26.317257"
       y="88.157974" />
    <path
       inkscape:export-ydpi="150.22649"
       inkscape:export-xdpi="150.22649"
       inkscape:export-filename="/home/vortico/pics/tmp/LFOs.png"
       style="display:inline;fill:#00609a;fill-opacity:1;fill-rule:nonzero;stroke:none;stroke-width:0.353458"
       d="m 33.812583,112.02812 c 0,-0.50898 -0.45009,-0.92612 -1.00096,-0.92612 h -7.697038 c -0.550878,0 -1.001001,0.41714 -1.001001,0.92612 v 11.26776 c 0,0.509 0.450123,0.92612 1.001001,0.92612 h 7.697038 c 0.55087,0 1.00096,-0.41712 1.00096,-0.92612 z m 0,0"
       id="path36485-4-6-2"
       inkscape:connector-curvature="0" />
    <path
       d="m 27.107471,113.44162 v 0.81844 h -0.245533 v -1.97555 h 0.530578 q 0.239888,0 0.361244,0.10724 0.124178,0.10443 0.124178,0.33303 v 0.27093 q 0,0.31891 -0.254,0.39793 l 0.392288,0.86642 h -0.268111 l -0.364066,-0.81844 z m 0.524933,-0.74224 q 0,-0.10725 -0.0508,-0.15523 -0.04798,-0.048 -0.155222,-0.048 h -0.318911 v 0.73377 h 0.318911 q 0.107245,0 0.155222,-0.048 0.0508,-0.0508 0.0508,-0.15805 z m 1.789291,-0.41487 v 0.20602 h -0.697089 v 0.64629 h 0.626533 v 0.20602 h -0.626533 v 0.7112 h 0.697089 v 0.20602 h -0.942622 v -1.97555 z m 0.448735,0 h 0.248356 l 0.338666,1.7272 0.364066,-1.7272 h 0.242711 l -0.443088,1.97555 h -0.335844 z"
       id="text2525-4"
       style="font-size:2.82222px;line-height:1.25;font-family:'Share Tech Mono';-inkscape-font-specification:'Share Tech Mono, Normal';letter-spacing:0px;word-spacing:0px;fill:#ffffff;stroke:#ffffff;stroke-width:0.165"
       aria-label="REV" />
    <path
       inkscape:export-ydpi="150.22649"
       inkscape:export-xdpi="150.22649"
       inkscape:export-filename="/home/vortico/pics/tmp/LFOs.png"
       style="display:inline;fill:#00609a;fill-opacity:1;fill-rule:nonzero;stroke:none;stroke-width:0.353458"
       d="m 22.629582,112.02812 c 0,-0.50898 -0.45009,-0.92612 -1.00096,-0.92612 h -7.697038 c -0.550878,0 -1.001001,0.41714 -1.001001,0.92612 v 11.26776 c 0,0.509 0.450123,0.92612 1.001001,0.92612 h 7.697038 c 0.55087,0 1.00096,-0.41712 1.00096,-0.92612 z m 0,0"
       id="path36485-4-6-2-0"
       inkscape:connector-curvature="0" />
    <path
       d="m 16.817703,113.78029 q 0,0.23988 -0.132644,0.36124 -0.129822,0.11853 -0.375356,0.11853 h -0.112888 q -0.245534,0 -0.378178,-0.11853 -0.129822,-0.12136 -0.129822,-0.36124 v -1.016 q 0,-0.23989 0.129822,-0.35843 0.132644,-0.12135 0.378178,-0.12135 h 0.112888 q 0.245534,0 0.375356,0.12135 0.132644,0.11854 0.132644,0.35843 z m -0.245533,-1.06963 q 0,-0.0875 -0.06491,-0.14957 -0.06491,-0.0621 -0.169333,-0.0621 h -0.169334 q -0.104422,0 -0.169333,0.0621 -0.06491,0.0621 -0.06491,0.14957 v 1.12325 q 0,0.0875 0.06491,0.14958 0.06491,0.0621 0.169333,0.0621 h 0.169334 q 0.104422,0 0.169333,-0.0621 0.06491,-0.0621 0.06491,-0.14958 z m 1.746957,1.06963 q 0,0.23988 -0.132645,0.36124 -0.129822,0.11853 -0.375355,0.11853 h -0.07055 q -0.245534,0 -0.378178,-0.11853 -0.129822,-0.12136 -0.129822,-0.36124 v -1.49578 h 0.245533 v 1.5494 q 0,0.0875 0.06491,0.14958 0.06491,0.0621 0.169333,0.0621 h 0.127 q 0.104422,0 0.169334,-0.0621 0.06491,-0.0621 0.06491,-0.14958 v -1.5494 h 0.245533 z m 0.857957,0.47977 V 112.499 h -0.448733 v -0.21449 h 1.142999 v 0.21449 h -0.448733 v 1.76106 z"
       id="text2525-4-0"
       style="font-size:2.82222px;line-height:1.25;font-family:'Share Tech Mono';-inkscape-font-specification:'Share Tech Mono, Normal';letter-spacing:0px;word-spacing:0px;fill:#ffffff;stroke:#ffffff;stroke-width:0.165"
       aria-label="OUT" />
    <path
       d="m 3.328781,114.05404 v -1.56351 H 3.0747811 v -0.20602 h 0.7535328 v 0.20602 H 3.5743141 v 1.56351 h 0.2539998 v 0.20602 H 3.0747811 v -0.20602 z m 1.3377349,0.20602 H 4.4379161 v -1.97555 h 0.4007552 l 0.4459108,1.76671 v -1.76671 h 0.2285998 v 1.97555 H 5.1096045 l -0.4430886,-1.76671 z m 2.3452675,-1.21355 q 0,0.2286 -0.1213554,0.33866 -0.1213555,0.10725 -0.358422,0.10725 H 6.2384951 v 0.76764 H 5.992962 v -1.97555 h 0.5333996 q 0.2398887,0 0.3612441,0.10724 0.1241777,0.10443 0.1241777,0.33303 z m -0.2455331,-0.34713 q 0,-0.10725 -0.0508,-0.15523 -0.047978,-0.048 -0.1552221,-0.048 H 6.2384951 v 0.78457 h 0.3217331 q 0.1072444,0 0.1552221,-0.048 0.0508,-0.0508 0.0508,-0.15805 z m 1.8005789,1.08091 q 0,0.23988 -0.1326443,0.36124 -0.1298222,0.11853 -0.3753553,0.11853 h -0.070555 q -0.2455332,0 -0.3781775,-0.11853 -0.1298221,-0.12136 -0.1298221,-0.36124 v -1.49578 h 0.2455331 v 1.5494 q 0,0.0875 0.064911,0.14958 0.064911,0.0621 0.1693332,0.0621 h 0.1269999 q 0.1044221,0 0.1693332,-0.0621 0.064911,-0.0621 0.064911,-0.14958 v -1.5494 h 0.2455331 z m 0.8579577,0.47977 V 112.499 h -0.448733 v -0.21449 H 10.119053 V 112.499 H 9.67032 v 1.76106 z"
       id="text2525-5-40-0-0-5"
       style="font-size:2.82222px;line-height:1.25;font-family:'Share Tech Mono';-inkscape-font-specification:'Share Tech Mono, Normal';letter-spacing:0px;word-spacing:0px;stroke:#000000;stroke-width:0.165"
       aria-label="INPUT" />
    <rect
       style="display:inline;fill:#9fb6b1;fill-opacity:1;stroke-width:0.327"
       id="rect5-6-86-8"
       width="7.8732748"
       height="0.97400111"
       x="2.3282783"
       y="111.228" />
    <rect
       style="display:inline;fill:#9fb6b1;fill-opacity:1;stroke-width:0.327"
       id="rect5-6-86-6"
       width="7.8732748"
       height="0.97400111"
       x="2.3282783"
       y="114.34258" />
    <path
       d="m 12.322602,27.752904 q 0,0.38982 -0.215547,0.587023 -0.210961,0.192616 -0.609953,0.192616 h -0.651228 v -0.348544 h 0.697089 q 0.169686,0 0.275167,-0.100895 0.10548,-0.100894 0.10548,-0.243063 v -0.476956 q 0,-0.137583 -0.07338,-0.220133 -0.06879,-0.08714 -0.210961,-0.08714 h -0.137583 q -0.339372,0 -0.536575,-0.197203 -0.197203,-0.201789 -0.197203,-0.582436 v -0.174272 q 0,-0.38982 0.210962,-0.582436 0.215547,-0.197203 0.614538,-0.197203 h 0.655814 v 0.348544 h -0.701675 q -0.169686,0 -0.275166,0.100895 -0.105481,0.100894 -0.105481,0.243064 v 0.348544 q 0,0.14217 0.09172,0.238478 0.09172,0.09172 0.238478,0.09172 h 0.137583 q 0.325614,0 0.504472,0.188031 0.183445,0.18803 0.183445,0.568677 z m 2.531537,-1.192388 q 0,0.371475 -0.197203,0.550333 -0.197203,0.174272 -0.582436,0.174272 h -0.476955 v 1.247422 h -0.398992 v -3.210277 h 0.866775 q 0.389819,0 0.587022,0.174272 0.201789,0.169686 0.201789,0.541161 z m -0.398992,-0.564092 q 0,-0.174272 -0.08255,-0.252236 -0.07796,-0.07796 -0.252236,-0.07796 h -0.522816 v 1.274939 h 0.522816 q 0.174272,0 0.252236,-0.07796 0.08255,-0.08255 0.08255,-0.256822 z m 1.527179,1.206147 v 1.329972 h -0.398992 v -3.210277 h 0.862189 q 0.389819,0 0.587022,0.174272 0.201789,0.169686 0.201789,0.541161 v 0.440267 q 0,0.51823 -0.41275,0.646641 l 0.637469,1.407936 h -0.43568 l -0.591608,-1.329972 z m 0.853016,-1.206147 q 0,-0.174272 -0.08255,-0.252236 -0.07796,-0.07796 -0.252236,-0.07796 h -0.51823 v 1.192389 h 0.51823 q 0.174273,0 0.252236,-0.07796 0.08255,-0.08255 0.08255,-0.256822 z m 2.907599,-0.674158 v 0.334786 h -1.13277 v 1.050219 h 1.018117 v 0.334786 h -1.018117 v 1.1557 h 1.13277 v 0.334786 H 18.21118 v -3.210277 z m 1.26577,2.398536 -0.178858,0.811741 h -0.408164 l 0.775052,-3.210277 h 0.527403 l 0.761294,3.210277 h -0.408163 l -0.174273,-0.811741 z m 0.820914,-0.343959 -0.376061,-1.751894 -0.371475,1.751894 z m 2.962631,0.431095 q 0,0.394405 -0.183445,0.559505 -0.178858,0.1651 -0.596194,0.1651 h -0.944739 v -3.210277 h 0.889706 q 0.41275,0 0.623711,0.169686 0.210961,0.1651 0.210961,0.545747 z m -0.398992,-1.811514 q 0,-0.151341 -0.09172,-0.238477 -0.09172,-0.09172 -0.243064,-0.09172 H 23.46687 v 2.522361 h 0.587022 q 0.174272,0 0.256822,-0.07796 0.08255,-0.08255 0.08255,-0.256822 z"
       id="text2232-9-24-8-6-1"
       style="font-size:4.58611px;line-height:1.25;font-family:'Share Tech Mono';-inkscape-font-specification:'Share Tech Mono, Normal';letter-spacing:0px;word-spacing:0px;stroke:#000000;stroke-width:0.165"
       aria-label="SPREAD" />
    <g
       id="text2232-9-24-8-6-1-7"
       style="font-size:4.58611px;line-height:1.25;font-family:'Share Tech Mono';-inkscape-font-specification:'Share Tech Mono, Normal';letter-spacing:0px;word-spacing:0px;stroke:#000000;stroke-width:0.165"
       aria-label="TILT">
      <path
         d="m 13.998123,48.142052 v -2.861733 h -0.729191 v -0.348544 h 1.857374 v 0.348544 h -0.729191 v 2.861733 z m 2.476504,-0.334786 v -2.540705 h -0.41275 v -0.334786 h 1.224491 v 0.334786 h -0.41275 v 2.540705 h 0.41275 v 0.334786 h -1.224491 v -0.334786 z"
         id="path1" />
      <path
         style="letter-spacing:-0.264583px"
         d="m 18.841064,44.931775 v 2.861732 h 1.022702 v 0.348545 h -1.421694 v -3.210277 z m 2.321987,3.210277 V 45.280319 H 20.43386 v -0.348544 h 1.857374 v 0.348544 h -0.729191 v 2.861733 z"
         id="path2" />
    </g>
    <path
       d="m 18.627746,67.397392 v 1.329972 h -0.398992 v -3.210277 h 0.862189 q 0.389819,0 0.587022,0.174272 0.201789,0.169686 0.201789,0.541161 v 0.440266 q 0,0.518231 -0.41275,0.646642 l 0.637469,1.407936 h -0.43568 l -0.591609,-1.329972 z m 0.853016,-1.206147 q 0,-0.174272 -0.08255,-0.252236 -0.07796,-0.07796 -0.252236,-0.07796 h -0.51823 v 1.192388 h 0.51823 q 0.174272,0 0.252236,-0.07796 0.08255,-0.08255 0.08255,-0.256823 z m 1.829157,1.724377 -0.178858,0.811742 h -0.408164 l 0.775052,-3.210277 h 0.527403 l 0.761294,3.210277 H 22.378483 L 22.20421,67.915622 Z m 0.820914,-0.343958 -0.376061,-1.751894 -0.371475,1.751894 z m 1.728262,1.1557 H 23.48762 v -3.210277 h 0.651228 l 0.724605,2.870904 v -2.870904 h 0.371475 v 3.210277 h -0.655814 l -0.720019,-2.870905 z m 3.975457,-0.724606 q 0,0.394406 -0.183445,0.559506 -0.178858,0.1651 -0.596194,0.1651 h -0.944739 v -3.210277 h 0.889706 q 0.41275,0 0.623711,0.169686 0.210961,0.1651 0.210961,0.545747 z M 27.43556,66.191245 q 0,-0.151342 -0.09172,-0.238478 -0.09172,-0.09172 -0.243064,-0.09172 h -0.591608 v 2.52236 h 0.587022 q 0.174272,0 0.256822,-0.07796 0.08255,-0.08255 0.08255,-0.256822 z m 3.062821,1.75648 q 0,0.389819 -0.215548,0.587022 -0.210961,0.192617 -0.609952,0.192617 h -0.183445 q -0.398991,0 -0.614538,-0.192617 -0.210961,-0.197203 -0.210961,-0.587022 v -1.651 q 0,-0.389819 0.210961,-0.582436 0.215547,-0.197202 0.614538,-0.197202 h 0.183445 q 0.398991,0 0.609952,0.197202 0.215548,0.192617 0.215548,0.582436 z m -0.398992,-1.738136 q 0,-0.142169 -0.10548,-0.243064 -0.105481,-0.100894 -0.275167,-0.100894 h -0.275167 q -0.169686,0 -0.275166,0.100894 -0.105481,0.100895 -0.105481,0.243064 v 1.825272 q 0,0.142169 0.105481,0.243064 0.10548,0.100894 0.275166,0.100894 h 0.275167 q 0.169686,0 0.275167,-0.100894 0.10548,-0.100895 0.10548,-0.243064 z m 2.274009,1.440039 h -0.380647 l -0.449439,-1.802342 v 2.880078 h -0.348544 v -3.210277 h 0.637469 l 0.366889,1.641827 0.371475,-1.641827 h 0.619125 v 3.210277 h -0.357717 v -2.880078 z"
       id="text2232-9-24-8-6-1-70"
       style="font-size:4.58611px;line-height:1.25;font-family:'Share Tech Mono';-inkscape-font-specification:'Share Tech Mono, Normal';letter-spacing:0.132292px;word-spacing:0px;stroke:#000000;stroke-width:0.165"
       transform="scale(1.0000166,0.9999834)"
       aria-label="RANDOM" />
    <rect
       style="display:inline;fill:#000000;fill-opacity:1;stroke-width:0.0555224"
       id="rect1226-6-6-9-24"
       width="7.2465463"
       height="0.29800001"
       x="13.461257"
       y="77.053558"
       rx="0.038319871"
       ry="0.038319871" />
    <path
       d="M 7.4796653,72.355911 V 70.594846 H 7.0309324 v -0.214489 h 1.1429991 v 0.214489 h -0.448733 v 1.761065 z m 1.3292683,-0.818444 v 0.818444 H 8.5634005 v -1.975554 h 0.5305774 q 0.2398887,0 0.3612441,0.107245 0.1241777,0.104422 0.1241777,0.333022 v 0.270933 q 0,0.318911 -0.2539998,0.397933 l 0.3922886,0.866421 H 9.4495776 L 9.0855112,71.537467 Z m 0.524933,-0.742243 q 0,-0.107245 -0.0508,-0.155223 -0.047978,-0.04798 -0.1552221,-0.04798 H 8.8089336 v 0.733777 h 0.3189109 q 0.1072444,0 0.1552221,-0.04798 0.0508,-0.0508 0.0508,-0.158044 z m 1.1938014,1.354665 v -1.56351 h -0.254 v -0.206022 h 0.753533 v 0.206022 h -0.254 v 1.56351 h 0.254 v 0.206022 h -0.753533 v -0.206022 z m 1.659468,0.206022 q -0.245533,0 -0.378177,-0.118533 -0.129822,-0.121355 -0.129822,-0.361244 v -1.015999 q 0,-0.239889 0.129822,-0.358422 0.132644,-0.121356 0.378177,-0.121356 h 0.397933 v 0.214489 h -0.426155 q -0.104422,0 -0.169333,0.06209 -0.06491,0.06209 -0.06491,0.149577 v 1.123244 q 0,0.08749 0.06491,0.149578 0.06491,0.06209 0.169333,0.06209 h 0.276578 v -0.612422 h -0.245534 v -0.211667 h 0.479778 v 1.038577 z"
       id="text2525-5-40"
       style="font-size:2.82222px;line-height:1.25;font-family:'Share Tech Mono';-inkscape-font-specification:'Share Tech Mono, Normal';letter-spacing:0px;word-spacing:0px;stroke:#000000;stroke-width:0.165"
       aria-label="TRIG" />
    <rect
       style="display:inline;fill:#9fb6b1;fill-opacity:1;stroke-width:0.327"
       id="rect5"
       width="11.081347"
       height="0.97400111"
       x="23.238367"
       y="64.459503" />
    <rect
       style="display:inline;fill:#9fb6b1;fill-opacity:1;stroke-width:0.327"
       id="rect5-6"
       width="11.081347"
       height="0.97400111"
       x="22.087049"
       y="68.808723" />
    <path
       d="m 20.431044,8.143498 q 0,0.3898194 -0.215548,0.5870221 -0.210961,0.1926166 -0.609952,0.1926166 h -0.183445 q -0.398991,0 -0.614538,-0.1926166 Q 18.5966,8.5333174 18.5966,8.143498 V 6.4924984 q 0,-0.3898194 0.210961,-0.582436 0.215547,-0.1972028 0.614538,-0.1972028 h 0.183445 q 0.398991,0 0.609952,0.1972028 0.215548,0.1926166 0.215548,0.582436 z M 20.032052,6.4053623 q 0,-0.1421695 -0.105481,-0.2430639 Q 19.821091,6.061404 19.651405,6.061404 h -0.275167 q -0.169686,0 -0.275166,0.1008944 -0.105481,0.1008944 -0.105481,0.2430639 v 1.8252718 q 0,0.1421694 0.105481,0.2430638 0.10548,0.1008944 0.275166,0.1008944 h 0.275167 q 0.169686,0 0.275166,-0.1008944 0.105481,-0.1008944 0.105481,-0.2430638 z M 22.655311,7.143726 V 7.478512 H 21.637195 V 8.9231367 H 21.238203 V 5.7128596 h 1.531761 V 6.0476457 H 21.637195 V 7.143726 Z m 2.476504,0 V 7.478512 H 24.113698 V 8.9231367 H 23.714707 V 5.7128596 h 1.53176 V 6.0476457 H 24.113698 V 7.143726 Z m 2.58657,0.999772 q 0,0.3898194 -0.215547,0.5870221 -0.210961,0.1926166 -0.609953,0.1926166 H 26.241658 V 8.5745923 h 0.697089 q 0.169686,0 0.275166,-0.1008944 0.105481,-0.1008944 0.105481,-0.2430638 V 7.7536786 q 0,-0.1375833 -0.07338,-0.2201333 -0.06879,-0.087136 -0.210961,-0.087136 h -0.137583 q -0.339373,0 -0.536575,-0.1972028 -0.197203,-0.2017888 -0.197203,-0.582436 V 6.4924984 q 0,-0.3898194 0.210961,-0.582436 0.215547,-0.1972028 0.614539,-0.1972028 h 0.655813 V 6.061404 h -0.701674 q -0.169686,0 -0.275167,0.1008944 -0.105481,0.1008944 -0.105481,0.2430639 v 0.3485443 q 0,0.1421694 0.09172,0.2384778 0.09172,0.091722 0.238477,0.091722 h 0.137584 q 0.325614,0 0.504472,0.1880305 0.183444,0.1880305 0.183444,0.5686776 z m 2.467331,-2.4306384 v 0.3347861 h -1.132769 v 1.0502192 h 1.018117 v 0.334786 h -1.018117 v 1.1556998 h 1.132769 v 0.334786 h -1.53176 V 5.7128596 Z m 1.508835,3.2102771 V 6.061404 H 30.965359 V 5.7128596 h 1.857375 V 6.061404 h -0.729192 v 2.8617327 z"
       id="text2232-9-24-8-6-1-70-4"
       style="font-size:4.58611px;line-height:1.25;font-family:'Share Tech Mono';-inkscape-font-specification:'Share Tech Mono, Normal';letter-spacing:0px;word-spacing:0px;stroke:#000000;stroke-width:0.165"
       aria-label="OFFSET" />
    <path
       d="m 6.1218204,8.9231367 q -0.3989915,0 -0.6145387,-0.1926166 Q 5.2963206,8.5333174 5.2963206,8.143498 V 6.4924984 q 0,-0.3898194 0.2109611,-0.582436 Q 5.7228289,5.7128596 6.1218204,5.7128596 H 6.768462 V 6.061404 H 6.0759593 q -0.169686,0 -0.2751666,0.1008944 -0.1054805,0.1008944 -0.1054805,0.2430639 v 1.8252718 q 0,0.1421694 0.1054805,0.2430638 0.1054806,0.1008944 0.2751666,0.1008944 H 6.5253981 V 7.5794064 H 6.1264066 V 7.2354482 H 6.9060453 V 8.9231367 Z M 8.1351269,8.1113952 7.9562686,8.9231367 H 7.5481048 L 8.3231574,5.7128596 H 8.8505601 L 9.6118544,8.9231367 H 9.2036906 L 9.0294184,8.1113952 Z M 8.9560406,7.767437 8.5799796,6.0155429 8.2085047,7.767437 Z m 1.8986534,0.8209137 v -2.540705 h -0.41275 V 5.7128596 h 1.224492 v 0.3347861 h -0.41275 v 2.540705 h 0.41275 v 0.334786 h -1.224492 v -0.334786 z m 2.173821,0.334786 H 12.65704 V 5.7128596 h 0.651228 l 0.724605,2.870905 v -2.870905 h 0.371475 V 8.9231367 H 13.748534 L 13.028515,6.0522318 Z"
       id="text2232-9-24-8-6-1-70-4-4-0"
       style="font-size:4.58611px;line-height:1.25;font-family:'Share Tech Mono';-inkscape-font-specification:'Share Tech Mono, Normal';letter-spacing:0px;word-spacing:0px;stroke:#000000;stroke-width:0.165"
       aria-label="GAIN" />
    <rect
       style="display:inline;fill:#9fb6b1;fill-opacity:1;stroke-width:0.327"
       id="rect5-0"
       width="11.081347"
       height="0.97400111"
       x="7.2012415"
       y="4.6563582" />
    <rect
       style="display:inline;fill:#9fb6b1;fill-opacity:1;stroke-width:0.327"
       id="rect5-8"
       width="11.081347"
       height="0.97400111"
       x="5.0211644"
       y="9.0056372" />
    <path
       d="m 5.5738592,40.234124 q 0,0.242711 -0.1128888,0.344311 -0.1100666,0.1016 -0.3668886,0.1016 H 4.5127045 v -1.975554 h 0.5475107 q 0.2539998,0 0.3838219,0.104422 0.1298221,0.1016 0.1298221,0.335844 z M 5.3283261,39.119347 q 0,-0.09313 -0.056444,-0.146756 -0.056444,-0.05644 -0.1495777,-0.05644 H 4.7582376 v 1.552221 h 0.3612442 q 0.1072444,0 0.1580443,-0.04798 0.0508,-0.0508 0.0508,-0.158044 z m 1.1147795,1.354666 v -1.56351 H 6.1891058 v -0.206022 h 0.7535328 v 0.206022 H 6.6886388 v 1.56351 h 0.2539998 v 0.206022 H 6.1891058 v -0.206022 z m 1.3292683,-0.612422 v 0.818444 H 7.5268408 v -1.975554 h 0.5305774 q 0.2398887,0 0.3612441,0.107244 0.1241777,0.104422 0.1241777,0.333022 v 0.270933 q 0,0.318911 -0.2539998,0.397933 l 0.3922886,0.866422 H 8.4130179 L 8.0489515,39.861591 Z m 0.524933,-0.742244 q 0,-0.107244 -0.0508,-0.155222 -0.047978,-0.04798 -0.1552221,-0.04798 H 7.7723739 v 0.733777 h 0.3189109 q 0.1072444,0 0.1552221,-0.04798 0.0508,-0.0508 0.0508,-0.158045 z"
       id="text2525-5-40-0-0-1"
       style="font-size:2.82222px;line-height:1.25;font-family:'Share Tech Mono';-inkscape-font-specification:'Share Tech Mono, Normal';letter-spacing:0px;word-spacing:0px;stroke:#000000;stroke-width:0.165"
       aria-label="DIR" />
  </g>
</svg>
