<?xml version="1.0" encoding="UTF-8" standalone="no"?>
<!-- Created with Inkscape (http://www.inkscape.org/) -->

<svg
   width="10.16mm"
   height="128.5mm"
   viewBox="0 0 10.16 128.5"
   version="1.1"
   id="svg8"
   inkscape:version="1.3.2 (091e20e, 2023-11-25, custom)"
   sodipodi:docname="SDLines.svg"
   xmlns:inkscape="http://www.inkscape.org/namespaces/inkscape"
   xmlns:sodipodi="http://sodipodi.sourceforge.net/DTD/sodipodi-0.dtd"
   xmlns="http://www.w3.org/2000/svg"
   xmlns:svg="http://www.w3.org/2000/svg"
   xmlns:rdf="http://www.w3.org/1999/02/22-rdf-syntax-ns#"
   xmlns:cc="http://creativecommons.org/ns#"
   xmlns:dc="http://purl.org/dc/elements/1.1/">
  <defs
     id="defs2" />
  <sodipodi:namedview
     id="base"
     pagecolor="#ffffff"
     bordercolor="#666666"
     borderopacity="1.0"
     inkscape:pageopacity="0.0"
     inkscape:pageshadow="2"
     inkscape:zoom="2"
     inkscape:cx="-70"
     inkscape:cy="208"
     inkscape:document-units="mm"
     inkscape:current-layer="layer1"
     showgrid="false"
     inkscape:window-width="2644"
     inkscape:window-height="1338"
     inkscape:window-x="166"
     inkscape:window-y="53"
     inkscape:window-maximized="0"
     showguides="true"
     inkscape:showpageshadow="2"
     inkscape:pagecheckerboard="0"
     inkscape:deskcolor="#d1d1d1" />
  <metadata
     id="metadata5">
    <rdf:RDF>
      <cc:Work
         rdf:about="">
        <dc:format>image/svg+xml</dc:format>
        <dc:type
           rdf:resource="http://purl.org/dc/dcmitype/StillImage" />
      </cc:Work>
    </rdf:RDF>
  </metadata>
  <g
     inkscape:label="Layer 1"
     inkscape:groupmode="layer"
     id="layer1"
     transform="translate(0,-168.5)"
     style="display:inline;opacity:1">
    <rect
       style="fill:#9fb6b1;fill-opacity:1;stroke-width:0.0836686"
       id="rect815"
       width="10.16"
       height="128.5"
       x="0"
       y="168.5" />
    <rect
       style="display:inline;fill:#7d9b95;fill-opacity:1;stroke-width:0.912606"
       id="rect1"
       width="10.16"
       height="104.845"
       x="0"
       y="174.209"
       inkscape:label="overlay" />
    <path
       id="rect1-0"
       style="display:inline;fill:#64827c;fill-opacity:1;stroke:none;stroke-width:0.217;stroke-opacity:1"
       d="M -4.2888183e-7,174.009 H 10.16 v 0.2 H -4.2888183e-7 Z" />
    <path
       id="rect1-0-4"
       style="display:inline;fill:#64827c;fill-opacity:1;stroke:none;stroke-width:0.217;stroke-opacity:1"
       d="M -3.0517578e-7,279.054 H 10.16 v 0.2 H -3.0517578e-7 Z" />
    <path
       d="m 1.8118638,282.65503 v -1.56351 H 1.557864 v -0.20602 h 0.7535328 v 0.20602 H 2.057397 v 1.56351 h 0.2539998 v 0.20602 H 1.557864 v -0.20602 z m 1.337735,0.20602 H 2.920999 v -1.97555 h 0.4007552 l 0.4459108,1.76671 v -1.76671 h 0.2285998 v 1.97555 H 3.5926874 l -0.4430886,-1.76671 z m 2.3452675,-1.21355 q 0,0.2286 -0.1213554,0.33867 -0.1213555,0.10724 -0.358422,0.10724 H 4.721578 v 0.76764 H 4.4760449 v -1.97555 h 0.5333996 q 0.2398887,0 0.3612441,0.10724 0.1241777,0.10443 0.1241777,0.33303 z m -0.2455331,-0.34713 q 0,-0.10725 -0.0508,-0.15523 -0.047978,-0.048 -0.1552221,-0.048 H 4.721578 v 0.78457 h 0.3217331 q 0.1072444,0 0.1552221,-0.048 0.0508,-0.0508 0.0508,-0.15805 z m 1.8005789,1.08091 q 0,0.23988 -0.1326443,0.36124 -0.1298222,0.11853 -0.3753553,0.11853 H 6.471357 q -0.2455332,0 -0.3781775,-0.11853 -0.1298221,-0.12136 -0.1298221,-0.36124 v -1.49578 h 0.2455331 v 1.5494 q 0,0.0875 0.064911,0.14958 0.064911,0.0621 0.1693332,0.0621 h 0.1269999 q 0.1044221,0 0.1693332,-0.0621 0.064911,-0.0621 0.064911,-0.14958 v -1.5494 h 0.2455331 z m 0.8579577,0.47977 v -1.76106 h -0.448733 v -0.21449 h 1.1429991 v 0.21449 h -0.448733 v 1.76106 z"
       id="text2525-5-9"
       style="font-size:2.82222px;line-height:1.25;font-family:'Share Tech Mono';-inkscape-font-specification:'Share Tech Mono, Normal';letter-spacing:0px;word-spacing:0px;stroke:#000000;stroke-width:0.165"
       aria-label="INPUT" />
    <rect
       style="display:inline;fill:#9fb6b1;fill-opacity:1;stroke-width:0.327001"
       id="rect5-3-7-0-9"
       width="3.2505822"
       height="0.75301385"
       x="2.000911"
       y="282.94354" />
    <rect
       style="display:inline;fill:#9fb6b1;fill-opacity:1;stroke-width:0.327001"
       id="rect5-3-7-0-9-8"
       width="3.2505822"
       height="0.75301385"
       x="2.2654948"
       y="280.04999" />
  </g>
  <g
     inkscape:groupmode="layer"
     id="layer3"
     inkscape:label="labels"
     style="display:inline">
    <path
       d="m 2.0884998,4.7585745 q -0.1116108,0 -0.1880848,-0.076474 Q 1.823941,4.6056265 1.823941,4.4940157 V 2.1129869 h 0.2645588 v 2.3810288 h 0.5291175 v 0.2645588 z m 0.7936762,0 V 2.1129869 h 0.2645588 v 2.6455876 z m 0.5291175,0 V 2.3775456 q 0,-0.1095438 0.076474,-0.1860179 0.076474,-0.078541 0.1880848,-0.078541 H 3.940411 q 0.1095439,0 0.1860179,0.078541 0.078541,0.076474 0.078541,0.1860179 V 4.7585745 H 3.940411 V 2.3775456 H 3.6758523 v 2.3810289 z m 1.3227939,0 q -0.1116107,0 -0.1880847,-0.076474 -0.076474,-0.076474 -0.076474,-0.1880848 V 2.3775456 q 0,-0.1095438 0.076474,-0.1860179 0.076474,-0.078541 0.1880847,-0.078541 H 5.263205 V 2.3775456 H 4.7340874 V 3.1712219 H 5.263205 V 3.4357807 H 4.7340874 v 1.058235 H 5.263205 v 0.2645588 z m 1.058235,0 q -0.1116108,0 -0.1880848,-0.076474 -0.076474,-0.076474 -0.076474,-0.1880848 V 3.7003394 H 5.7923224 V 4.4940157 H 6.0568811 V 3.4357807 H 5.7923224 q -0.1116108,0 -0.1880848,-0.076474 -0.076474,-0.076474 -0.076474,-0.1880848 V 2.3775456 q 0,-0.1095438 0.076474,-0.1860179 0.076474,-0.078541 0.1880848,-0.078541 h 0.2645587 q 0.1095439,0 0.1860179,0.078541 0.078541,0.076474 0.078541,0.1860179 V 2.9066631 H 6.0568811 V 2.3775456 H 5.7923224 v 0.7936763 h 0.2645587 q 0.1095439,0 0.1860179,0.078541 0.078541,0.076474 0.078541,0.1860179 v 1.058235 q 0,0.1116108 -0.078541,0.1880848 -0.076474,0.076474 -0.1860179,0.076474 z"
       id="text53"
       style="font-size:4.23294px;font-family:'BrightonTwo SmallCaps NBP';-inkscape-font-specification:'BrightonTwo SmallCaps NBP, Normal';stroke-width:0.329993"
       transform="scale(1.2473327,0.80171072)"
       aria-label="LINES" />
    <text
       xml:space="preserve"
       style="font-style:normal;font-variant:normal;font-weight:normal;font-stretch:normal;font-size:3.52778px;line-height:1.25;font-family:Mandatory;-inkscape-font-specification:'Mandatory, Normal';font-variant-ligatures:normal;font-variant-caps:normal;font-variant-numeric:normal;font-feature-settings:normal;text-align:start;letter-spacing:0px;word-spacing:0px;writing-mode:lr-tb;text-anchor:start;fill:#000000;fill-opacity:1;stroke:none;stroke-width:0.264583"
       x="74.32386"
       y="113.58712"
       id="text1400" />
  </g>
</svg>
