<?xml version="1.0" encoding="UTF-8" standalone="no"?>
<!-- Created with Inkscape (http://www.inkscape.org/) -->

<svg
   width="25.4mm"
   height="128.5mm"
   viewBox="0 0 25.4 128.5"
   version="1.1"
   id="svg8"
   inkscape:version="1.3.2 (091e20e, 2023-11-25, custom)"
   sodipodi:docname="SDTransgate.svg"
   xml:space="preserve"
   xmlns:inkscape="http://www.inkscape.org/namespaces/inkscape"
   xmlns:sodipodi="http://sodipodi.sourceforge.net/DTD/sodipodi-0.dtd"
   xmlns="http://www.w3.org/2000/svg"
   xmlns:svg="http://www.w3.org/2000/svg"
   xmlns:rdf="http://www.w3.org/1999/02/22-rdf-syntax-ns#"
   xmlns:cc="http://creativecommons.org/ns#"
   xmlns:dc="http://purl.org/dc/elements/1.1/"><defs
     id="defs2"><pattern
       id="EMFhbasepattern"
       patternUnits="userSpaceOnUse"
       width="6"
       height="6"
       x="0"
       y="0" /></defs><sodipodi:namedview
     id="base"
     pagecolor="#ffffff"
     bordercolor="#666666"
     borderopacity="1.0"
     inkscape:pageopacity="0.0"
     inkscape:pageshadow="2"
     inkscape:zoom="8.0000005"
     inkscape:cx="27.624998"
     inkscape:cy="362.68748"
     inkscape:document-units="mm"
     inkscape:current-layer="layer3"
     showgrid="false"
     inkscape:window-width="3840"
     inkscape:window-height="1529"
     inkscape:window-x="-8"
     inkscape:window-y="-8"
     inkscape:window-maximized="1"
     showguides="true"
     inkscape:showpageshadow="2"
     inkscape:pagecheckerboard="0"
     inkscape:deskcolor="#d1d1d1" /><metadata
     id="metadata5"><rdf:RDF><cc:Work
         rdf:about=""><dc:format>image/svg+xml</dc:format><dc:type
           rdf:resource="http://purl.org/dc/dcmitype/StillImage" /></cc:Work></rdf:RDF></metadata><g
     inkscape:label="Layer 1"
     inkscape:groupmode="layer"
     id="layer1"
     transform="translate(0,-168.5)"
     style="display:inline;opacity:1"><rect
       style="fill:#9fb6b1;fill-opacity:1;stroke-width:0.0836686"
       id="rect815"
       width="25.4"
       height="128.5"
       x="0"
       y="168.5"
       inkscape:label="rect815"
       sodipodi:insensitive="true" /></g><g
     inkscape:groupmode="layer"
     id="layer3"
     inkscape:label="labels"
     style="display:inline"><path
       d="M 5.8165064,4.7585745 V 2.3775456 H 5.5519476 V 2.1129869 H 6.3456239 V 2.3775456 H 6.0810651 V 4.7585745 Z M 7.1393002,3.1712219 V 2.3775456 H 6.8747414 V 3.1712219 Z M 6.6101826,4.7585745 V 2.1129869 h 0.5291176 q 0.1095438,0 0.1860178,0.078541 0.078541,0.076474 0.078541,0.1860179 v 0.7936763 q 0,0.055805 -0.03927,0.095076 -0.03927,0.037204 -0.093009,0.037204 0.053739,0 0.093009,0.03927 0.03927,0.03927 0.03927,0.093009 V 4.7585745 H 7.1393002 V 3.4357807 H 6.8747414 V 4.7585745 Z M 8.1975352,3.1712219 V 2.3775456 H 7.9329765 V 3.1712219 Z M 7.6684177,4.7585745 V 2.3775456 q 0,-0.1095438 0.076474,-0.1860179 0.076474,-0.078541 0.1880848,-0.078541 h 0.2645587 q 0.1095439,0 0.1860179,0.078541 0.078541,0.076474 0.078541,0.1860179 V 4.7585745 H 8.1975352 V 3.4357807 H 7.9329765 v 1.3227938 z m 1.0582349,0 V 2.3775456 q 0,-0.1095438 0.076474,-0.1860179 0.076474,-0.078541 0.1880848,-0.078541 h 0.2645587 q 0.1095439,0 0.1860179,0.078541 0.078541,0.076474 0.078541,0.1860179 V 4.7585745 H 9.2557701 V 2.3775456 H 8.9912114 v 2.3810289 z m 1.3227944,0 q -0.1116112,0 -0.1880852,-0.076474 -0.076474,-0.076474 -0.076474,-0.1880848 V 3.7003394 h 0.2645592 v 0.7936763 h 0.264558 v -1.058235 h -0.264558 q -0.1116112,0 -0.1880852,-0.076474 -0.076474,-0.076474 -0.076474,-0.1880848 V 2.3775456 q 0,-0.1095438 0.076474,-0.1860179 0.076474,-0.078541 0.1880852,-0.078541 h 0.264558 q 0.109544,0 0.186018,0.078541 0.07854,0.076474 0.07854,0.1860179 V 2.9066631 H 10.314005 V 2.3775456 h -0.264558 v 0.7936763 h 0.264558 q 0.109544,0 0.186018,0.078541 0.07854,0.076474 0.07854,0.1860179 v 1.058235 q 0,0.1116108 -0.07854,0.1880848 -0.07647,0.076474 -0.186018,0.076474 z m 1.058235,0 q -0.111611,0 -0.188085,-0.076474 -0.07647,-0.076474 -0.07647,-0.1880848 V 2.3775456 q 0,-0.1095438 0.07647,-0.1860179 0.07647,-0.078541 0.188085,-0.078541 h 0.264558 q 0.109544,0 0.186018,0.078541 0.07854,0.076474 0.07854,0.1860179 H 11.107682 V 4.4940157 H 11.37224 V 3.1712219 h 0.264559 v 1.3227938 q 0,0.1116108 -0.07854,0.1880848 -0.07647,0.076474 -0.186018,0.076474 z M 12.430475,3.1712219 V 2.3775456 H 12.165916 V 3.1712219 Z M 11.901358,4.7585745 V 2.3775456 q 0,-0.1095438 0.07647,-0.1860179 0.07647,-0.078541 0.188084,-0.078541 h 0.264559 q 0.109544,0 0.186018,0.078541 0.07854,0.076474 0.07854,0.1860179 V 4.7585745 H 12.430475 V 3.4357807 h -0.264559 v 1.3227938 z m 1.322794,0 V 2.3775456 H 12.959593 V 2.1129869 h 0.793676 V 2.3775456 H 13.48871 v 2.3810289 z m 1.058235,0 q -0.111611,0 -0.188085,-0.076474 -0.07647,-0.076474 -0.07647,-0.1880848 V 2.3775456 q 0,-0.1095438 0.07647,-0.1860179 0.07647,-0.078541 0.188085,-0.078541 h 0.529117 v 0.2645587 h -0.529117 v 0.7936763 h 0.529117 v 0.2645588 h -0.529117 v 1.058235 h 0.529117 v 0.2645588 z"
       id="text53"
       style="font-size:4.23294px;font-family:'BrightonTwo SmallCaps NBP';-inkscape-font-specification:'BrightonTwo SmallCaps NBP, Normal';stroke-width:0.329993"
       transform="scale(1.2473327,0.80171072)"
       aria-label="TRANSGATE" /><path
       d="m 3.6247321,99.551498 q -0.2455332,0 -0.3781775,-0.118533 Q 3.1167325,99.31161 3.1167325,99.071721 v -1.015999 q 0,-0.239889 0.1298221,-0.358422 0.1326443,-0.121356 0.3781775,-0.121356 h 0.397933 v 0.214489 H 3.5965099 q -0.1044222,0 -0.1693332,0.06209 -0.064911,0.06209 -0.064911,0.149578 v 1.123243 q 0,0.08749 0.064911,0.149578 0.064911,0.06209 0.1693332,0.06209 H 3.8730874 V 98.724588 H 3.6275543 v -0.211667 h 0.4797774 v 1.038577 z M 4.8636893,99.051965 4.7536227,99.551498 H 4.5024452 l 0.4769551,-1.975554 h 0.3245554 l 0.4684885,1.975554 H 5.5212666 L 5.4140222,99.051965 Z m 0.5051774,-0.211666 -0.231422,-1.078088 -0.2285999,1.078088 z m 1.1684018,0.711199 v -1.761065 h -0.448733 v -0.214489 h 1.1429991 v 0.214489 h -0.448733 v 1.761065 z m 2.1194898,-1.975554 v 0.206022 H 7.9596699 v 0.646289 h 0.6265329 v 0.206022 H 7.9596699 v 0.711199 h 0.6970884 v 0.206022 H 7.7141368 v -1.975554 z m 1.5296457,1.495777 q 0,0.239889 -0.132644,0.361244 -0.1298222,0.118533 -0.3753553,0.118533 H 9.2776494 V 99.33701 h 0.4289775 q 0.1044221,0 0.1693332,-0.06209 0.064911,-0.06209 0.064911,-0.149578 v -0.293511 q 0,-0.08467 -0.045156,-0.135466 -0.042333,-0.05362 -0.1298221,-0.05362 h -0.084667 q -0.2088443,0 -0.3301997,-0.121356 Q 9.2296717,98.39721 9.2296717,98.162966 v -0.107244 q 0,-0.239889 0.1298221,-0.358422 0.1326444,-0.121356 0.3781775,-0.121356 h 0.4035777 v 0.214489 H 9.7094491 q -0.1044221,0 -0.1693332,0.06209 -0.064911,0.06209 -0.064911,0.149578 v 0.214488 q 0,0.08749 0.056444,0.146756 0.056444,0.05644 0.1467555,0.05644 h 0.084667 q 0.2003776,0 0.3104437,0.115711 0.112889,0.115711 0.112889,0.349955 z"
       id="text2525-5-40-0"
       style="font-size:2.82222px;line-height:1.25;font-family:'Share Tech Mono';-inkscape-font-specification:'Share Tech Mono, Normal';letter-spacing:0px;word-spacing:0px;stroke:#000000;stroke-width:0.165"
       aria-label="GATES" /><path
       d="m 4.389555,8.0680542 q -0.2455331,0 -0.3781775,-0.1185332 Q 3.8815554,7.8281655 3.8815554,7.5882768 V 6.5722776 q 0,-0.2398888 0.1298221,-0.358422 Q 4.1440219,6.0925001 4.389555,6.0925001 H 4.7874881 V 6.3069889 H 4.3613328 q -0.1044221,0 -0.1693332,0.062089 -0.064911,0.062089 -0.064911,0.1495777 V 7.641899 q 0,0.087489 0.064911,0.1495776 0.064911,0.062089 0.1693332,0.062089 H 4.6379104 V 7.2411437 H 4.3923773 V 7.0294772 h 0.4797774 v 1.038577 z M 5.6285123,7.5685212 5.5184457,8.0680542 H 5.2672681 L 5.7442233,6.0925001 H 6.0687786 L 6.5372671,8.0680542 H 6.2860896 L 6.1788452,7.5685212 Z M 6.1336897,7.3568547 5.9022676,6.2787667 5.6736678,7.3568547 Z M 7.3020914,8.0680542 V 6.3069889 H 6.8533584 V 6.0925001 H 7.9963576 V 6.3069889 H 7.5476246 V 8.0680542 Z M 9.4215812,6.0925001 V 6.2985222 H 8.7244929 V 6.9448106 H 9.3510257 V 7.1508327 H 8.7244929 V 7.8620321 H 9.4215812 V 8.0680542 H 8.4789597 V 6.0925001 Z"
       id="text2525-5-40-0-7"
       style="font-size:2.82222px;line-height:1.25;font-family:'Share Tech Mono';-inkscape-font-specification:'Share Tech Mono, Normal';letter-spacing:0px;word-spacing:0px;stroke:#000000;stroke-width:0.165"
       aria-label="GATE" /><path
       d="M 16.004093,8.0680542 V 6.3069889 H 15.55536 V 6.0925001 h 1.142999 V 6.3069889 H 16.249626 V 8.0680542 Z M 17.333361,7.2496104 V 8.0680542 H 17.087828 V 6.0925001 h 0.530577 q 0.239889,0 0.361244,0.1072444 0.124178,0.1044221 0.124178,0.333022 v 0.2709331 q 0,0.3189109 -0.254,0.397933 l 0.392289,0.8664216 H 17.974005 L 17.609939,7.2496104 Z m 0.524933,-0.7422439 q 0,-0.1072444 -0.0508,-0.1552221 -0.04798,-0.047978 -0.155222,-0.047978 h -0.318911 v 0.7337773 h 0.318911 q 0.107244,0 0.155222,-0.047978 0.0508,-0.0508 0.0508,-0.1580443 z m 1.044224,1.0611547 -0.110067,0.499533 h -0.251177 l 0.476955,-1.9755541 h 0.324555 l 0.468489,1.9755541 h -0.251178 l -0.107244,-0.499533 z m 0.505177,-0.2116665 -0.231422,-1.078088 -0.228599,1.078088 z m 0.982136,0.7111995 h -0.2286 V 6.0925001 h 0.400755 l 0.445911,1.7667098 V 6.0925001 h 0.2286 V 8.0680542 H 20.832919 L 20.389831,6.3013444 Z m 2.311401,-0.4797774 q 0,0.2398887 -0.132645,0.3612442 -0.129822,0.1185332 -0.375355,0.1185332 H 21.792477 V 7.8535655 h 0.428977 q 0.104422,0 0.169333,-0.062089 0.06491,-0.062089 0.06491,-0.1495776 V 7.3483881 q 0,-0.084667 -0.04516,-0.1354666 -0.04233,-0.053622 -0.129822,-0.053622 h -0.08467 q -0.208844,0 -0.3302,-0.1213554 -0.121355,-0.1241777 -0.121355,-0.358422 V 6.5722776 q 0,-0.2398888 0.129822,-0.358422 0.132644,-0.1213555 0.378178,-0.1213555 h 0.403577 v 0.2144888 h -0.4318 q -0.104422,0 -0.169333,0.062089 -0.06491,0.062089 -0.06491,0.1495777 v 0.2144887 q 0,0.087489 0.05644,0.1467554 0.05645,0.056444 0.146756,0.056444 h 0.08467 q 0.200377,0 0.310444,0.1157111 0.112889,0.115711 0.112889,0.3499553 z"
       id="text2525-5-40-0-7-4"
       style="font-size:2.82222px;line-height:1.25;font-family:'Share Tech Mono';-inkscape-font-specification:'Share Tech Mono, Normal';letter-spacing:0px;word-spacing:0px;stroke:#000000;stroke-width:0.165"
       aria-label="TRANS" /><path
       inkscape:export-ydpi="150.22649"
       inkscape:export-xdpi="150.22649"
       inkscape:export-filename="/home/vortico/pics/tmp/LFOs.png"
       style="display:inline;fill:#00609a;fill-opacity:1;fill-rule:nonzero;stroke:none;stroke-width:0.353458"
       d="m 22.685069,111.92812 c 0,-0.50898 -0.45009,-0.92612 -1.00096,-0.92612 h -7.697038 c -0.550878,0 -1.001001,0.41714 -1.001001,0.92612 v 11.26776 c 0,0.509 0.450123,0.92612 1.001001,0.92612 h 7.697038 c 0.55087,0 1.00096,-0.41712 1.00096,-0.92612 z m 0,0"
       id="path36485-4-6-2-0"
       inkscape:connector-curvature="0" /><path
       d="m 16.87319,113.78029 q 0,0.23988 -0.132645,0.36124 -0.129822,0.11853 -0.375355,0.11853 h -0.112889 q -0.245533,0 -0.378177,-0.11853 -0.129822,-0.12136 -0.129822,-0.36124 v -1.016 q 0,-0.23989 0.129822,-0.35843 0.132644,-0.12135 0.378177,-0.12135 h 0.112889 q 0.245533,0 0.375355,0.12135 0.132645,0.11854 0.132645,0.35843 z m -0.245533,-1.06963 q 0,-0.0875 -0.06491,-0.14957 -0.06491,-0.0621 -0.169333,-0.0621 h -0.169333 q -0.104422,0 -0.169333,0.0621 -0.06491,0.0621 -0.06491,0.14957 v 1.12325 q 0,0.0875 0.06491,0.14958 0.06491,0.0621 0.169333,0.0621 h 0.169333 q 0.104422,0 0.169333,-0.0621 0.06491,-0.0621 0.06491,-0.14958 z m 1.746956,1.06963 q 0,0.23988 -0.132644,0.36124 -0.129822,0.11853 -0.375355,0.11853 h -0.07056 q -0.245533,0 -0.378177,-0.11853 -0.129822,-0.12136 -0.129822,-0.36124 v -1.49578 h 0.245533 v 1.5494 q 0,0.0875 0.06491,0.14958 0.06491,0.0621 0.169333,0.0621 h 0.127 q 0.104422,0 0.169333,-0.0621 0.06491,-0.0621 0.06491,-0.14958 v -1.5494 h 0.245533 z m 0.857958,0.47977 V 112.499 h -0.448733 v -0.21449 h 1.142999 v 0.21449 h -0.448733 v 1.76106 z"
       id="text2525-4-0"
       style="font-size:2.82222px;line-height:1.25;font-family:'Share Tech Mono';-inkscape-font-specification:'Share Tech Mono, Normal';letter-spacing:0px;word-spacing:0px;fill:#ffffff;stroke:#ffffff;stroke-width:0.165"
       aria-label="OUT" /><path
       d="m 5.6863681,114.05404 v -1.56351 H 5.4323682 v -0.20602 H 6.185901 v 0.20602 H 5.9319012 v 1.56351 H 6.185901 v 0.20602 H 5.4323682 v -0.20602 z m 1.3377349,0.20602 H 6.7955032 v -1.97555 h 0.4007552 l 0.4459108,1.76671 v -1.76671 H 7.870769 v 1.97555 H 7.4671916 L 7.024103,112.49335 Z"
       id="text2525-5-40-0-0-5"
       style="font-size:2.82222px;line-height:1.25;font-family:'Share Tech Mono';-inkscape-font-specification:'Share Tech Mono, Normal';letter-spacing:0px;word-spacing:0px;stroke:#000000;stroke-width:0.165"
       aria-label="IN" /><rect
       style="display:inline;fill:#9fb6b1;fill-opacity:1;stroke-width:0.327"
       id="rect5-6-86-8"
       width="7.8732748"
       height="0.97400111"
       x="2.714931"
       y="111.228" /><rect
       style="display:inline;fill:#9fb6b1;fill-opacity:1;stroke-width:0.327"
       id="rect5-6-86-8-8"
       width="8.7861366"
       height="0.97400111"
       x="13.898933"
       y="96.51944" /><rect
       style="display:inline;fill:#9fb6b1;fill-opacity:1;stroke-width:0.327"
       id="rect5-6-86-8-8-8"
       width="8.7861366"
       height="0.97400111"
       x="14.91117"
       y="5.0359988" /><rect
       style="display:inline;fill:#9fb6b1;fill-opacity:1;stroke-width:0.327"
       id="rect5-6-86-8-8-7"
       width="8.7861366"
       height="0.52751678"
       x="15.588388"
       y="8.1505547" /><rect
       style="display:inline;fill:#9fb6b1;fill-opacity:1;stroke-width:0.327"
       id="rect5-6-86-6"
       width="7.8732748"
       height="0.97400111"
       x="2.714931"
       y="114.34258" /><rect
       style="display:inline;fill:#9fb6b1;fill-opacity:1;stroke-width:0.327"
       id="rect5-6-86-6-3"
       width="7.8732748"
       height="0.97400111"
       x="15.008358"
       y="99.633995" /><g
       id="text2525-5-40-0-0-1"
       style="font-size:2.82222px;line-height:1.25;font-family:'Share Tech Mono';-inkscape-font-specification:'Share Tech Mono, Normal';letter-spacing:0px;word-spacing:-0.529167px;stroke:#000000;stroke-width:0.165"
       aria-label="ALL ON"><path
         d="m 14.274803,99.051965 -0.110066,0.499533 h -0.251178 l 0.476955,-1.975554 h 0.324556 l 0.468488,1.975554 H 14.93238 l -0.107244,-0.499533 z m 0.505178,-0.211666 -0.231422,-1.078088 -0.2286,1.078088 z"
         id="path1" /><path
         style="letter-spacing:-0.209021px"
         d="m 15.880649,97.575944 v 1.761066 h 0.629355 v 0.214488 h -0.874888 v -1.975554 z m 1.31498,0 v 1.761066 h 0.629356 v 0.214488 h -0.874889 v -1.975554 z"
         id="path2" /><path
         d="m 20.2618,99.071721 q 0,0.239889 -0.132645,0.361244 -0.129822,0.118533 -0.375355,0.118533 h -0.112889 q -0.245533,0 -0.378177,-0.118533 -0.129822,-0.121355 -0.129822,-0.361244 v -1.015999 q 0,-0.239889 0.129822,-0.358422 0.132644,-0.121356 0.378177,-0.121356 H 19.7538 q 0.245533,0 0.375355,0.121356 0.132645,0.118533 0.132645,0.358422 z M 20.016266,98.0021 q 0,-0.08749 -0.06491,-0.149578 -0.06491,-0.06209 -0.169333,-0.06209 h -0.169333 q -0.104422,0 -0.169333,0.06209 -0.06491,0.06209 -0.06491,0.149578 v 1.123243 q 0,0.08749 0.06491,0.149578 0.06491,0.06209 0.169333,0.06209 h 0.169333 q 0.104422,0 0.169333,-0.06209 0.06491,-0.06209 0.06491,-0.149578 z m 0.894646,1.549398 h -0.228599 v -1.975554 h 0.400755 l 0.445911,1.76671 v -1.76671 h 0.2286 v 1.975554 h -0.403578 l -0.443089,-1.766709 z"
         id="path3" /></g></g></svg>
