<?xml version="1.0" encoding="UTF-8" standalone="no"?>
<!-- Created with Inkscape (http://www.inkscape.org/) -->

<svg
   width="9.6140003mm"
   height="9.6140003mm"
   viewBox="0 0 9.6140003 9.6140011"
   version="1.1"
   id="svg15246"
   sodipodi:docname="SDSmallKnob.svg"
   inkscape:version="1.3.2 (091e20e, 2023-11-25, custom)"
   xmlns:inkscape="http://www.inkscape.org/namespaces/inkscape"
   xmlns:sodipodi="http://sodipodi.sourceforge.net/DTD/sodipodi-0.dtd"
   xmlns="http://www.w3.org/2000/svg"
   xmlns:svg="http://www.w3.org/2000/svg"
   xmlns:rdf="http://www.w3.org/1999/02/22-rdf-syntax-ns#"
   xmlns:cc="http://creativecommons.org/ns#"
   xmlns:dc="http://purl.org/dc/elements/1.1/">
  <defs
     id="defs15240">
    <clipPath
       id="clip89">
      <rect
         y="0"
         x="0"
         width="18"
         height="19"
         id="rect4864" />
    </clipPath>
    <clipPath
       id="clip90">
      <path
         inkscape:connector-curvature="0"
         d="m 0.898438,0.128906 h 16.25 v 17.882813 h -16.25 z m 0,0"
         id="path4861" />
    </clipPath>
    <mask
       id="mask44">
      <g
         style="filter:url(#alpha)"
         id="g4858"
         transform="matrix(0.26458333,0,0,0.26458333,89.358789,128.57765)">
        <rect
           x="0"
           y="0"
           width="3052.8701"
           height="3351.5"
           style="fill:#000000;fill-opacity:0.149994;stroke:none"
           id="rect4856" />
      </g>
    </mask>
    <filter
       id="alpha"
       filterUnits="objectBoundingBox"
       x="0"
       y="0"
       width="1"
       height="1">
      <feColorMatrix
         type="matrix"
         in="SourceGraphic"
         values="0 0 0 0 1 0 0 0 0 1 0 0 0 0 1 0 0 0 1 0"
         id="feColorMatrix4149" />
    </filter>
    <clipPath
       id="clipPath17821">
      <rect
         y="0"
         x="0"
         width="18"
         height="19"
         id="rect17819" />
    </clipPath>
    <clipPath
       id="clipPath17825">
      <path
         inkscape:connector-curvature="0"
         d="m 0.898438,0.128906 h 16.25 v 17.882813 h -16.25 z m 0,0"
         id="path17823" />
    </clipPath>
    <clipPath
       id="clip87">
      <rect
         y="0"
         x="0"
         width="24"
         height="26"
         id="rect4848" />
    </clipPath>
    <clipPath
       id="clip88">
      <path
         inkscape:connector-curvature="0"
         d="m 0.683594,0.921875 h 22.679687 v 24.9375 H 0.683594 Z m 0,0"
         id="path4845" />
    </clipPath>
    <mask
       id="mask43">
      <g
         style="filter:url(#alpha)"
         id="g4842"
         transform="matrix(0.26458333,0,0,0.26458333,89.358789,128.57765)">
        <rect
           x="0"
           y="0"
           width="3052.8701"
           height="3351.5"
           style="fill:#000000;fill-opacity:0.149994;stroke:none"
           id="rect4840" />
      </g>
    </mask>
    <filter
       id="filter17836"
       filterUnits="objectBoundingBox"
       x="0"
       y="0"
       width="1"
       height="1">
      <feColorMatrix
         type="matrix"
         in="SourceGraphic"
         values="0 0 0 0 1 0 0 0 0 1 0 0 0 0 1 0 0 0 1 0"
         id="feColorMatrix17834" />
    </filter>
    <clipPath
       id="clipPath17840">
      <rect
         y="0"
         x="0"
         width="24"
         height="26"
         id="rect17838" />
    </clipPath>
    <clipPath
       id="clipPath17844">
      <path
         inkscape:connector-curvature="0"
         d="m 0.683594,0.921875 h 22.679687 v 24.9375 H 0.683594 Z m 0,0"
         id="path17842" />
    </clipPath>
    <clipPath
       id="clip95">
      <rect
         y="0"
         x="0"
         width="18"
         height="18"
         id="rect4912" />
    </clipPath>
    <clipPath
       id="clip96">
      <path
         inkscape:connector-curvature="0"
         d="M 0.140625,0.140625 H 17.199219 V 17.199219 H 0.140625 Z m 0,0"
         id="path4909" />
    </clipPath>
    <mask
       id="mask47">
      <g
         style="filter:url(#alpha-3)"
         id="g4906"
         transform="matrix(0.26458333,0,0,0.26458333,88.611154,119.19859)">
        <rect
           x="0"
           y="0"
           width="3052.8701"
           height="3351.5"
           style="fill:#000000;fill-opacity:0.330002;stroke:none"
           id="rect4904" />
      </g>
    </mask>
    <filter
       id="alpha-3"
       filterUnits="objectBoundingBox"
       x="0"
       y="0"
       width="1"
       height="1">
      <feColorMatrix
         type="matrix"
         in="SourceGraphic"
         values="0 0 0 0 1 0 0 0 0 1 0 0 0 0 1 0 0 0 1 0"
         id="feColorMatrix4149-6" />
    </filter>
    <clipPath
       id="clipPath18541">
      <rect
         y="0"
         x="0"
         width="18"
         height="18"
         id="rect18539" />
    </clipPath>
    <clipPath
       id="clipPath18545">
      <path
         inkscape:connector-curvature="0"
         d="M 0.140625,0.140625 H 17.199219 V 17.199219 H 0.140625 Z m 0,0"
         id="path18543" />
    </clipPath>
    <clipPath
       id="clip93">
      <rect
         y="0"
         x="0"
         width="22"
         height="24"
         id="rect4896" />
    </clipPath>
    <clipPath
       id="clip94">
      <path
         inkscape:connector-curvature="0"
         d="M 0.0390625,0.0390625 H 21.300781 V 23.421875 H 0.0390625 Z m 0,0"
         id="path4893" />
    </clipPath>
    <mask
       id="mask46">
      <g
         style="filter:url(#alpha-3)"
         id="g4890"
         transform="matrix(0.26458333,0,0,0.26458333,88.611154,119.19859)">
        <rect
           x="0"
           y="0"
           width="3052.8701"
           height="3351.5"
           style="fill:#000000;fill-opacity:0.149994;stroke:none"
           id="rect4888" />
      </g>
    </mask>
    <filter
       id="filter18556"
       filterUnits="objectBoundingBox"
       x="0"
       y="0"
       width="1"
       height="1">
      <feColorMatrix
         type="matrix"
         in="SourceGraphic"
         values="0 0 0 0 1 0 0 0 0 1 0 0 0 0 1 0 0 0 1 0"
         id="feColorMatrix18554" />
    </filter>
    <clipPath
       id="clipPath18560">
      <rect
         y="0"
         x="0"
         width="22"
         height="24"
         id="rect18558" />
    </clipPath>
    <clipPath
       id="clipPath18564">
      <path
         inkscape:connector-curvature="0"
         d="M 0.0390625,0.0390625 H 21.300781 V 23.421875 H 0.0390625 Z m 0,0"
         id="path18562" />
    </clipPath>
    <clipPath
       id="clip91">
      <rect
         y="0"
         x="0"
         width="29"
         height="32"
         id="rect4880" />
    </clipPath>
    <clipPath
       id="clip92">
      <path
         inkscape:connector-curvature="0"
         d="M 0.507812,0.5 H 28.855469 V 31.679688 H 0.507812 Z m 0,0"
         id="path4877" />
    </clipPath>
    <mask
       id="mask45">
      <g
         style="filter:url(#alpha-3)"
         id="g4874"
         transform="matrix(0.26458333,0,0,0.26458333,88.611154,119.19859)">
        <rect
           x="0"
           y="0"
           width="3052.8701"
           height="3351.5"
           style="fill:#000000;fill-opacity:0.149994;stroke:none"
           id="rect4872" />
      </g>
    </mask>
    <filter
       id="filter18575"
       filterUnits="objectBoundingBox"
       x="0"
       y="0"
       width="1"
       height="1">
      <feColorMatrix
         type="matrix"
         in="SourceGraphic"
         values="0 0 0 0 1 0 0 0 0 1 0 0 0 0 1 0 0 0 1 0"
         id="feColorMatrix18573" />
    </filter>
    <clipPath
       id="clipPath18579">
      <rect
         y="0"
         x="0"
         width="29"
         height="32"
         id="rect18577" />
    </clipPath>
    <clipPath
       id="clipPath18583">
      <path
         inkscape:connector-curvature="0"
         d="M 0.507812,0.5 H 28.855469 V 31.679688 H 0.507812 Z m 0,0"
         id="path18581" />
    </clipPath>
    <clipPath
       id="clip202">
      <rect
         y="0"
         x="0"
         width="18"
         height="18"
         id="rect5795" />
    </clipPath>
    <clipPath
       id="clip203">
      <path
         inkscape:connector-curvature="0"
         d="M 0.855469,0.140625 H 17.914062 V 17.199219 H 0.855469 Z m 0,0"
         id="path5792" />
    </clipPath>
    <mask
       id="mask104">
      <g
         style="filter:url(#alpha-7)"
         id="g5789"
         transform="matrix(0.26458333,0,0,0.26458333,74.416306,97.613551)">
        <rect
           x="0"
           y="0"
           width="3052.8701"
           height="3351.5"
           style="fill:#000000;fill-opacity:0.330002;stroke:none"
           id="rect5787" />
      </g>
    </mask>
    <filter
       id="alpha-7"
       filterUnits="objectBoundingBox"
       x="0"
       y="0"
       width="1"
       height="1">
      <feColorMatrix
         type="matrix"
         in="SourceGraphic"
         values="0 0 0 0 1 0 0 0 0 1 0 0 0 0 1 0 0 0 1 0"
         id="feColorMatrix4149-5" />
    </filter>
    <clipPath
       id="clipPath18765">
      <rect
         y="0"
         x="0"
         width="18"
         height="18"
         id="rect18763" />
    </clipPath>
    <clipPath
       id="clipPath18769">
      <path
         inkscape:connector-curvature="0"
         d="M 0.855469,0.140625 H 17.914062 V 17.199219 H 0.855469 Z m 0,0"
         id="path18767" />
    </clipPath>
  </defs>
  <sodipodi:namedview
     id="base"
     pagecolor="#ffffff"
     bordercolor="#666666"
     borderopacity="1.0"
     inkscape:pageopacity="0.0"
     inkscape:pageshadow="2"
     inkscape:zoom="16"
     inkscape:cx="30.8125"
     inkscape:cy="21.09375"
     inkscape:document-units="mm"
     inkscape:current-layer="layer1"
     showgrid="false"
     inkscape:window-width="3840"
     inkscape:window-height="1529"
     inkscape:window-x="-8"
     inkscape:window-y="-8"
     inkscape:window-maximized="1"
     units="px"
     fit-margin-top="0"
     fit-margin-left="0"
     fit-margin-right="0"
     fit-margin-bottom="0"
     inkscape:showpageshadow="2"
     inkscape:pagecheckerboard="0"
     inkscape:deskcolor="#d1d1d1" />
  <metadata
     id="metadata15243">
    <rdf:RDF>
      <cc:Work
         rdf:about="">
        <dc:format>image/svg+xml</dc:format>
        <dc:type
           rdf:resource="http://purl.org/dc/dcmitype/StillImage" />
      </cc:Work>
    </rdf:RDF>
  </metadata>
  <g
     inkscape:label="Layer 1"
     inkscape:groupmode="layer"
     id="layer1"
     transform="translate(-49.927677,-92.097358)">
    <path
       inkscape:connector-curvature="0"
       id="path7631-8"
       d="m 59.378177,96.9037 c 0,2.564931 -2.077948,4.64416 -4.644145,4.64416 -2.563617,0 -4.642855,-2.079229 -4.642855,-4.64416 0,-2.56361 2.079238,-4.642842 4.642855,-4.642842 2.566197,0 4.644145,2.079232 4.644145,4.642842"
       style="fill:#2f353d;fill-opacity:1;fill-rule:nonzero;stroke:#1d2125;stroke-width:0.327;stroke-dasharray:none;stroke-opacity:1" />
    <path
       inkscape:connector-curvature="0"
       id="path7631-3"
       d="m 58.696269,96.903793 c 0,2.188268 -1.772797,3.962157 -3.962141,3.962157 -2.187146,0 -3.961044,-1.773889 -3.961044,-3.962157 0,-2.187127 1.773898,-3.961028 3.961044,-3.961028 2.189344,0 3.962142,1.773901 3.962142,3.961028"
       style="fill:#1d2125;fill-opacity:1;fill-rule:nonzero;stroke:none;stroke-width:0.330996" />
    <path
       inkscape:connector-curvature="0"
       id="path7631-3-8"
       d="m 58.303354,96.903847 c 0,1.971214 -1.596969,3.569173 -3.569172,3.569173 -1.970221,0 -3.568183,-1.597959 -3.568183,-3.569173 0,-1.970196 1.597962,-3.568156 3.568183,-3.568156 1.972203,0 3.569172,1.59796 3.569172,3.568156"
       style="fill:#43586e;fill-opacity:1;fill-rule:nonzero;stroke:#e6e8ed;stroke-width:0.296;stroke-dasharray:none;stroke-opacity:1" />
    <path
       inkscape:connector-curvature="0"
       id="path7633-0-6"
       d="m 55.182637,92.816444 c -0.146987,-0.02166 -0.296597,-0.03523 -0.44796,-0.03523 -0.151361,0 -0.300098,0.01364 -0.447961,0.03523 v 2.448206 h 0.895921 z m 0,0"
       style="fill:#2f353d;fill-opacity:1;fill-rule:nonzero;stroke:none;stroke-width:0.317;stroke-dasharray:none;stroke-opacity:1" />
  </g>
</svg>
