<?xml version="1.0" encoding="UTF-8" standalone="no"?>
<!-- Created with Inkscape (http://www.inkscape.org/) -->

<svg
   width="7.3449998mm"
   height="7.3449998mm"
   viewBox="0 0 7.3449998 7.3450004"
   version="1.1"
   id="svg15246"
   sodipodi:docname="SDSmallestKnob.svg"
   inkscape:version="1.3.2 (091e20e, 2023-11-25, custom)"
   xmlns:inkscape="http://www.inkscape.org/namespaces/inkscape"
   xmlns:sodipodi="http://sodipodi.sourceforge.net/DTD/sodipodi-0.dtd"
   xmlns="http://www.w3.org/2000/svg"
   xmlns:svg="http://www.w3.org/2000/svg"
   xmlns:rdf="http://www.w3.org/1999/02/22-rdf-syntax-ns#"
   xmlns:cc="http://creativecommons.org/ns#"
   xmlns:dc="http://purl.org/dc/elements/1.1/">
  <defs
     id="defs15240">
    <clipPath
       id="clip89">
      <rect
         y="0"
         x="0"
         width="18"
         height="19"
         id="rect4864" />
    </clipPath>
    <clipPath
       id="clip90">
      <path
         inkscape:connector-curvature="0"
         d="m 0.898438,0.128906 h 16.25 v 17.882813 h -16.25 z m 0,0"
         id="path4861" />
    </clipPath>
    <mask
       id="mask44">
      <g
         style="filter:url(#alpha)"
         id="g4858"
         transform="matrix(0.26458333,0,0,0.26458333,89.358789,128.57765)">
        <rect
           x="0"
           y="0"
           width="3052.8701"
           height="3351.5"
           style="fill:#000000;fill-opacity:0.149994;stroke:none"
           id="rect4856" />
      </g>
    </mask>
    <filter
       id="alpha"
       filterUnits="objectBoundingBox"
       x="0"
       y="0"
       width="1"
       height="1">
      <feColorMatrix
         type="matrix"
         in="SourceGraphic"
         values="0 0 0 0 1 0 0 0 0 1 0 0 0 0 1 0 0 0 1 0"
         id="feColorMatrix4149" />
    </filter>
    <clipPath
       id="clipPath17821">
      <rect
         y="0"
         x="0"
         width="18"
         height="19"
         id="rect17819" />
    </clipPath>
    <clipPath
       id="clipPath17825">
      <path
         inkscape:connector-curvature="0"
         d="m 0.898438,0.128906 h 16.25 v 17.882813 h -16.25 z m 0,0"
         id="path17823" />
    </clipPath>
    <clipPath
       id="clip87">
      <rect
         y="0"
         x="0"
         width="24"
         height="26"
         id="rect4848" />
    </clipPath>
    <clipPath
       id="clip88">
      <path
         inkscape:connector-curvature="0"
         d="m 0.683594,0.921875 h 22.679687 v 24.9375 H 0.683594 Z m 0,0"
         id="path4845" />
    </clipPath>
    <mask
       id="mask43">
      <g
         style="filter:url(#alpha)"
         id="g4842"
         transform="matrix(0.26458333,0,0,0.26458333,89.358789,128.57765)">
        <rect
           x="0"
           y="0"
           width="3052.8701"
           height="3351.5"
           style="fill:#000000;fill-opacity:0.149994;stroke:none"
           id="rect4840" />
      </g>
    </mask>
    <filter
       id="filter17836"
       filterUnits="objectBoundingBox"
       x="0"
       y="0"
       width="1"
       height="1">
      <feColorMatrix
         type="matrix"
         in="SourceGraphic"
         values="0 0 0 0 1 0 0 0 0 1 0 0 0 0 1 0 0 0 1 0"
         id="feColorMatrix17834" />
    </filter>
    <clipPath
       id="clipPath17840">
      <rect
         y="0"
         x="0"
         width="24"
         height="26"
         id="rect17838" />
    </clipPath>
    <clipPath
       id="clipPath17844">
      <path
         inkscape:connector-curvature="0"
         d="m 0.683594,0.921875 h 22.679687 v 24.9375 H 0.683594 Z m 0,0"
         id="path17842" />
    </clipPath>
    <clipPath
       id="clip95">
      <rect
         y="0"
         x="0"
         width="18"
         height="18"
         id="rect4912" />
    </clipPath>
    <clipPath
       id="clip96">
      <path
         inkscape:connector-curvature="0"
         d="M 0.140625,0.140625 H 17.199219 V 17.199219 H 0.140625 Z m 0,0"
         id="path4909" />
    </clipPath>
    <mask
       id="mask47">
      <g
         style="filter:url(#alpha-3)"
         id="g4906"
         transform="matrix(0.26458333,0,0,0.26458333,88.611154,119.19859)">
        <rect
           x="0"
           y="0"
           width="3052.8701"
           height="3351.5"
           style="fill:#000000;fill-opacity:0.330002;stroke:none"
           id="rect4904" />
      </g>
    </mask>
    <filter
       id="alpha-3"
       filterUnits="objectBoundingBox"
       x="0"
       y="0"
       width="1"
       height="1">
      <feColorMatrix
         type="matrix"
         in="SourceGraphic"
         values="0 0 0 0 1 0 0 0 0 1 0 0 0 0 1 0 0 0 1 0"
         id="feColorMatrix4149-6" />
    </filter>
    <clipPath
       id="clipPath18541">
      <rect
         y="0"
         x="0"
         width="18"
         height="18"
         id="rect18539" />
    </clipPath>
    <clipPath
       id="clipPath18545">
      <path
         inkscape:connector-curvature="0"
         d="M 0.140625,0.140625 H 17.199219 V 17.199219 H 0.140625 Z m 0,0"
         id="path18543" />
    </clipPath>
    <clipPath
       id="clip93">
      <rect
         y="0"
         x="0"
         width="22"
         height="24"
         id="rect4896" />
    </clipPath>
    <clipPath
       id="clip94">
      <path
         inkscape:connector-curvature="0"
         d="M 0.0390625,0.0390625 H 21.300781 V 23.421875 H 0.0390625 Z m 0,0"
         id="path4893" />
    </clipPath>
    <mask
       id="mask46">
      <g
         style="filter:url(#alpha-3)"
         id="g4890"
         transform="matrix(0.26458333,0,0,0.26458333,88.611154,119.19859)">
        <rect
           x="0"
           y="0"
           width="3052.8701"
           height="3351.5"
           style="fill:#000000;fill-opacity:0.149994;stroke:none"
           id="rect4888" />
      </g>
    </mask>
    <filter
       id="filter18556"
       filterUnits="objectBoundingBox"
       x="0"
       y="0"
       width="1"
       height="1">
      <feColorMatrix
         type="matrix"
         in="SourceGraphic"
         values="0 0 0 0 1 0 0 0 0 1 0 0 0 0 1 0 0 0 1 0"
         id="feColorMatrix18554" />
    </filter>
    <clipPath
       id="clipPath18560">
      <rect
         y="0"
         x="0"
         width="22"
         height="24"
         id="rect18558" />
    </clipPath>
    <clipPath
       id="clipPath18564">
      <path
         inkscape:connector-curvature="0"
         d="M 0.0390625,0.0390625 H 21.300781 V 23.421875 H 0.0390625 Z m 0,0"
         id="path18562" />
    </clipPath>
    <clipPath
       id="clip91">
      <rect
         y="0"
         x="0"
         width="29"
         height="32"
         id="rect4880" />
    </clipPath>
    <clipPath
       id="clip92">
      <path
         inkscape:connector-curvature="0"
         d="M 0.507812,0.5 H 28.855469 V 31.679688 H 0.507812 Z m 0,0"
         id="path4877" />
    </clipPath>
    <mask
       id="mask45">
      <g
         style="filter:url(#alpha-3)"
         id="g4874"
         transform="matrix(0.26458333,0,0,0.26458333,88.611154,119.19859)">
        <rect
           x="0"
           y="0"
           width="3052.8701"
           height="3351.5"
           style="fill:#000000;fill-opacity:0.149994;stroke:none"
           id="rect4872" />
      </g>
    </mask>
    <filter
       id="filter18575"
       filterUnits="objectBoundingBox"
       x="0"
       y="0"
       width="1"
       height="1">
      <feColorMatrix
         type="matrix"
         in="SourceGraphic"
         values="0 0 0 0 1 0 0 0 0 1 0 0 0 0 1 0 0 0 1 0"
         id="feColorMatrix18573" />
    </filter>
    <clipPath
       id="clipPath18579">
      <rect
         y="0"
         x="0"
         width="29"
         height="32"
         id="rect18577" />
    </clipPath>
    <clipPath
       id="clipPath18583">
      <path
         inkscape:connector-curvature="0"
         d="M 0.507812,0.5 H 28.855469 V 31.679688 H 0.507812 Z m 0,0"
         id="path18581" />
    </clipPath>
    <clipPath
       id="clip202">
      <rect
         y="0"
         x="0"
         width="18"
         height="18"
         id="rect5795" />
    </clipPath>
    <clipPath
       id="clip203">
      <path
         inkscape:connector-curvature="0"
         d="M 0.855469,0.140625 H 17.914062 V 17.199219 H 0.855469 Z m 0,0"
         id="path5792" />
    </clipPath>
    <mask
       id="mask104">
      <g
         style="filter:url(#alpha-7)"
         id="g5789"
         transform="matrix(0.26458333,0,0,0.26458333,74.416306,97.613551)">
        <rect
           x="0"
           y="0"
           width="3052.8701"
           height="3351.5"
           style="fill:#000000;fill-opacity:0.330002;stroke:none"
           id="rect5787" />
      </g>
    </mask>
    <filter
       id="alpha-7"
       filterUnits="objectBoundingBox"
       x="0"
       y="0"
       width="1"
       height="1">
      <feColorMatrix
         type="matrix"
         in="SourceGraphic"
         values="0 0 0 0 1 0 0 0 0 1 0 0 0 0 1 0 0 0 1 0"
         id="feColorMatrix4149-5" />
    </filter>
    <clipPath
       id="clipPath18765">
      <rect
         y="0"
         x="0"
         width="18"
         height="18"
         id="rect18763" />
    </clipPath>
    <clipPath
       id="clipPath18769">
      <path
         inkscape:connector-curvature="0"
         d="M 0.855469,0.140625 H 17.914062 V 17.199219 H 0.855469 Z m 0,0"
         id="path18767" />
    </clipPath>
  </defs>
  <sodipodi:namedview
     id="base"
     pagecolor="#ffffff"
     bordercolor="#666666"
     borderopacity="1.0"
     inkscape:pageopacity="0.0"
     inkscape:pageshadow="2"
     inkscape:zoom="16"
     inkscape:cx="30.78125"
     inkscape:cy="21.09375"
     inkscape:document-units="mm"
     inkscape:current-layer="layer1"
     showgrid="false"
     inkscape:window-width="3840"
     inkscape:window-height="1529"
     inkscape:window-x="-8"
     inkscape:window-y="-8"
     inkscape:window-maximized="1"
     units="px"
     fit-margin-top="0"
     fit-margin-left="0"
     fit-margin-right="0"
     fit-margin-bottom="0"
     inkscape:showpageshadow="2"
     inkscape:pagecheckerboard="0"
     inkscape:deskcolor="#d1d1d1" />
  <metadata
     id="metadata15243">
    <rdf:RDF>
      <cc:Work
         rdf:about="">
        <dc:format>image/svg+xml</dc:format>
        <dc:type
           rdf:resource="http://purl.org/dc/dcmitype/StillImage" />
      </cc:Work>
    </rdf:RDF>
  </metadata>
  <g
     inkscape:label="Layer 1"
     inkscape:groupmode="layer"
     id="layer1"
     transform="translate(-49.927677,-92.097358)">
    <path
       inkscape:connector-curvature="0"
       id="path7631-8"
       d="m 57.109175,95.76936 c 0,1.938266 -1.570263,3.509499 -3.509487,3.509499 -1.937273,0 -3.508511,-1.571233 -3.508511,-3.509499 0,-1.937269 1.571238,-3.508502 3.508511,-3.508502 1.939224,0 3.509487,1.571233 3.509487,3.508502"
       style="fill:#2f353d;fill-opacity:1;fill-rule:nonzero;stroke:#1d2125;stroke-width:0.327;stroke-dasharray:none;stroke-opacity:1" />
    <path
       inkscape:connector-curvature="0"
       id="path7631-3"
       d="m 56.593871,95.76943 c 0,1.65363 -1.339667,2.994122 -2.99411,2.994122 -1.652782,0 -2.993281,-1.340492 -2.993281,-2.994122 0,-1.652768 1.340499,-2.993269 2.993281,-2.993269 1.654443,0 2.994111,1.340501 2.994111,2.993269"
       style="fill:#1d2125;fill-opacity:1;fill-rule:nonzero;stroke:none;stroke-width:0.330996" />
    <path
       inkscape:connector-curvature="0"
       id="path7631-3-8"
       d="m 56.296953,95.769471 c 0,1.489606 -1.206797,2.697152 -2.697151,2.697152 -1.488856,0 -2.696404,-1.207546 -2.696404,-2.697152 0,-1.488838 1.207548,-2.696384 2.696404,-2.696384 1.490354,0 2.697151,1.207546 2.697151,2.696384"
       style="fill:#43586e;fill-opacity:1;fill-rule:nonzero;stroke:#e6e8ed;stroke-width:0.296;stroke-dasharray:none;stroke-opacity:1" />
    <path
       inkscape:connector-curvature="0"
       id="path7633-0-6"
       d="m 53.93869,92.680703 c -0.111075,-0.01637 -0.224132,-0.02662 -0.338514,-0.02662 -0.114381,0 -0.226778,0.01031 -0.338515,0.02662 v 1.85006 h 0.677029 z m 0,0"
       style="fill:#2f353d;fill-opacity:1;fill-rule:nonzero;stroke:none;stroke-width:0.317;stroke-dasharray:none;stroke-opacity:1" />
  </g>
</svg>
