<?xml version="1.0" encoding="UTF-8" standalone="no"?>
<!-- Generator: Adobe Illustrator 25.2.3, SVG Export Plug-In . SVG Version: 6.00 Build 0)  -->

<svg
   version="1.0"
   id="svg258108"
   sodipodi:docname="sd_three_switch2.svg"
   x="0px"
   y="0px"
   width="13.457px"
   height="28.34766px"
   viewBox="0 0 13.457 28.34766"
   enable-background="new 0 0 13.457 28.34766"
   xml:space="preserve"
   inkscape:version="1.3.2 (091e20e, 2023-11-25, custom)"
   xmlns:inkscape="http://www.inkscape.org/namespaces/inkscape"
   xmlns:sodipodi="http://sodipodi.sourceforge.net/DTD/sodipodi-0.dtd"
   xmlns="http://www.w3.org/2000/svg"
   xmlns:svg="http://www.w3.org/2000/svg"><defs
   id="defs4">
	<linearGradient
   id="path5815_2_"
   gradientUnits="userSpaceOnUse"
   x1="6.72849"
   y1="9.75058"
   x2="6.72849"
   y2="18.59709">
		<stop
   offset="0.00559"
   style="stop-color:#373e48;stop-opacity:1;"
   id="stop3" />
		<stop
   offset="1"
   style="stop-color:#2D2C2C"
   id="stop4" />
	</linearGradient>
	
	
	
	
	
	
</defs>
<sodipodi:namedview
   bordercolor="#666666"
   borderopacity="1.0"
   fit-margin-bottom="0"
   fit-margin-left="0"
   fit-margin-right="0"
   fit-margin-top="0"
   id="base"
   inkscape:current-layer="svg258108"
   inkscape:cx="29.010318"
   inkscape:cy="19.587489"
   inkscape:document-units="mm"
   inkscape:pageopacity="0.0"
   inkscape:pageshadow="2"
   inkscape:window-height="1529"
   inkscape:window-maximized="1"
   inkscape:window-width="3840"
   inkscape:window-x="-8"
   inkscape:window-y="-8"
   inkscape:zoom="31.678384"
   pagecolor="#ffffff"
   showgrid="false"
   inkscape:showpageshadow="2"
   inkscape:pagecheckerboard="0"
   inkscape:deskcolor="#d1d1d1">
	</sodipodi:namedview>
<path
   id="path243332_1_"
   inkscape:connector-curvature="0"
   d="M-0.00001,1.41797C-0.00001,0.63673,0.64059,0,1.41792,0h10.62499  c0.77739,0,1.4141,0.63671,1.4141,1.41797V26.9297c0,0.77735-0.63669,1.41797-1.4141,1.41797H1.41792  c-0.77733,0-1.41793-0.64062-1.41793-1.41797V1.41797z" />
<linearGradient
   id="path243334_2_"
   gradientUnits="userSpaceOnUse"
   x1="6.73045"
   y1="1.26955"
   x2="6.73045"
   y2="27.07814">
	<stop
   offset="0"
   style="stop-color:#3B3B3B"
   id="stop1" />
	<stop
   offset="1"
   style="stop-color:#242424"
   id="stop2" />
</linearGradient>
<path
   id="path243334_1_"
   inkscape:connector-curvature="0"
   opacity="0.54"
   fill="url(#path243334_2_)"
   d="M11.32419,1.26955H2.1367  c-0.48326,0-0.87501,0.39176-0.87501,0.87501v24.05857c0,0.48326,0.39176,0.87501,0.87501,0.87501h9.18749  c0.48326,0,0.87501-0.39176,0.87501-0.87501V2.14456C12.1992,1.6613,11.80745,1.26955,11.32419,1.26955z" />
<rect
   x="0.73032"
   y="0.80509"
   opacity="0.3"
   width="12.00026"
   height="1.71664"
   id="rect2" />
<rect
   x="0.6362"
   y="17.7218"
   opacity="0.44"
   width="12.00026"
   height="3.54676"
   id="rect3" />
<path
   id="path5815_1_"
   inkscape:connector-curvature="0"
   fill="url(#path5815_2_)"
   d="M 1.25777,9.75058 H 12.1992 v 8.84651 H 1.25777 Z"
   style="fill:#373e48;fill-opacity:1" /><path
   id="path5817_1_"
   inkscape:connector-curvature="0"
   fill="#5e5e5e"
   d="M 1.25777,13.2975 H 12.1992 v 0.87738 H 1.25777 Z"
   style="fill:#6f8a91;fill-opacity:1" /><path
   id="path5819_1_"
   inkscape:connector-curvature="0"
   fill="#5e5e5e"
   d="M 1.25777,16.84443 H 12.1992 v 0.87738 H 1.25777 Z"
   style="fill:#6f8a91;fill-opacity:1" /><path
   id="path5821_1_"
   inkscape:connector-curvature="0"
   fill="#5e5e5e"
   d="M 1.25777,15.07182 H 12.1992 V 15.9492 H 1.25777 Z"
   style="fill:#6f8a91;fill-opacity:1" /><path
   id="path5823_1_"
   inkscape:connector-curvature="0"
   fill="#5e5e5e"
   d="M 1.25777,11.5241 H 12.1992 v 0.87738 H 1.25777 Z"
   style="fill:#6f8a91;fill-opacity:1" /><path
   id="path5825_1_"
   inkscape:connector-curvature="0"
   fill="#797979"
   d="M 1.25777,9.75058 H 12.1992 v 0.87738 H 1.25777 Z"
   style="fill:#6f8a91;fill-opacity:1" />
</svg>
