<?xml version="1.0" encoding="UTF-8" standalone="no"?>
<!-- Generator: Adobe Illustrator 25.2.3, SVG Export Plug-In . SVG Version: 6.00 Build 0)  -->

<svg
   version="1.0"
   id="svg258108"
   sodipodi:docname="sd_three_switch3.svg"
   x="0px"
   y="0px"
   width="13.457px"
   height="28.34766px"
   viewBox="0 0 13.457 28.34766"
   enable-background="new 0 0 13.457 28.34766"
   xml:space="preserve"
   inkscape:version="1.3.2 (091e20e, 2023-11-25, custom)"
   xmlns:inkscape="http://www.inkscape.org/namespaces/inkscape"
   xmlns:sodipodi="http://sodipodi.sourceforge.net/DTD/sodipodi-0.dtd"
   xmlns="http://www.w3.org/2000/svg"
   xmlns:svg="http://www.w3.org/2000/svg"><defs
   id="defs4">
	<linearGradient
   id="path5815_2_"
   gradientUnits="userSpaceOnUse"
   x1="6.7285"
   y1="1.21638"
   x2="6.7285"
   y2="10.0629">
		<stop
   offset="0.00559"
   style="stop-color:#3D3B3B"
   id="stop3" />
		<stop
   offset="1"
   style="stop-color:#2D2C2C"
   id="stop4" />
	</linearGradient>
	
	
	
	
	
	
</defs>
<sodipodi:namedview
   bordercolor="#666666"
   borderopacity="1.0"
   fit-margin-bottom="0"
   fit-margin-left="0"
   fit-margin-right="0"
   fit-margin-top="0"
   id="base"
   inkscape:current-layer="svg258108"
   inkscape:cx="15.120721"
   inkscape:cy="14.694563"
   inkscape:document-units="mm"
   inkscape:pageopacity="0.0"
   inkscape:pageshadow="2"
   inkscape:window-height="1529"
   inkscape:window-maximized="1"
   inkscape:window-width="3840"
   inkscape:window-x="-8"
   inkscape:window-y="-8"
   inkscape:zoom="31.678384"
   pagecolor="#ffffff"
   showgrid="false"
   inkscape:showpageshadow="2"
   inkscape:pagecheckerboard="0"
   inkscape:deskcolor="#d1d1d1">
	</sodipodi:namedview>
<path
   id="path243332_1_"
   inkscape:connector-curvature="0"
   d="M0,1.41797C0,0.63673,0.6406,0,1.41793,0h10.62499  c0.77739,0,1.4141,0.63671,1.4141,1.41797V26.9297c0,0.77735-0.63669,1.41797-1.4141,1.41797H1.41793  C0.6406,28.34767,0,27.70704,0,26.9297V1.41797z" />
<linearGradient
   id="path243334_2_"
   gradientUnits="userSpaceOnUse"
   x1="6.73046"
   y1="1.26955"
   x2="6.73046"
   y2="27.07814">
	<stop
   offset="0"
   style="stop-color:#3B3B3B"
   id="stop1" />
	<stop
   offset="1"
   style="stop-color:#242424"
   id="stop2" />
</linearGradient>
<path
   id="path243334_1_"
   inkscape:connector-curvature="0"
   opacity="0.54"
   fill="url(#path243334_2_)"
   d="M11.3242,1.26955H2.13671  c-0.48326,0-0.87501,0.39176-0.87501,0.87501v24.05857c0,0.48326,0.39176,0.87501,0.87501,0.87501h9.18749  c0.48326,0,0.87501-0.39176,0.87501-0.87501V2.14456C12.19921,1.6613,11.80746,1.26955,11.3242,1.26955z" />
<rect
   x="0.63621"
   y="9.18761"
   opacity="0.44"
   width="12.00026"
   height="3.54676"
   id="rect2" />
<path
   id="path5815_1_"
   inkscape:connector-curvature="0"
   fill="url(#path5815_2_)"
   d="m 1.25778,1.21638 h 10.94143 v 8.84651 H 1.25778 Z"
   style="fill:#373e48;fill-opacity:1" /><path
   id="path5817_1_"
   inkscape:connector-curvature="0"
   fill="#5e5e5e"
   d="M 1.25778,4.76331 H 12.19921 V 5.64069 H 1.25778 Z"
   style="fill:#6f8a91;fill-opacity:1" /><path
   id="path5819_1_"
   inkscape:connector-curvature="0"
   fill="#5e5e5e"
   d="M 1.25778,8.31023 H 12.19921 V 9.18761 H 1.25778 Z"
   style="fill:#6f8a91;fill-opacity:1" /><path
   id="path5821_1_"
   inkscape:connector-curvature="0"
   fill="#5e5e5e"
   d="M 1.25778,6.53763 H 12.19921 V 7.41501 H 1.25778 Z"
   style="fill:#6f8a91;fill-opacity:1" /><path
   id="path5823_1_"
   inkscape:connector-curvature="0"
   fill="#5e5e5e"
   d="M 1.25778,2.9899 H 12.19921 V 3.86728 H 1.25778 Z"
   style="fill:#6f8a91;fill-opacity:1" /><path
   id="path5825_1_"
   inkscape:connector-curvature="0"
   fill="#797979"
   d="M 1.25778,1.21638 H 12.19921 V 2.09376 H 1.25778 Z"
   style="fill:#6f8a91;fill-opacity:1" />
</svg>
