<?xml version="1.0" encoding="UTF-8" standalone="no"?>
<!-- Generator: Adobe Illustrator 25.2.3, SVG Export Plug-In . SVG Version: 6.00 Build 0)  -->

<svg
   version="1.0"
   id="svg56722"
   sodipodi:docname="sd_two_switch2.svg"
   x="0px"
   y="0px"
   width="13.457"
   height="20.641001"
   viewBox="0 0 13.457 20.641001"
   enable-background="new 0 0 14 20.64111"
   xml:space="preserve"
   inkscape:version="1.3.2 (091e20e, 2023-11-25, custom)"
   xmlns:inkscape="http://www.inkscape.org/namespaces/inkscape"
   xmlns:sodipodi="http://sodipodi.sourceforge.net/DTD/sodipodi-0.dtd"
   xmlns="http://www.w3.org/2000/svg"
   xmlns:svg="http://www.w3.org/2000/svg"><defs
   id="defs4">
	<linearGradient
   id="path5815_1_"
   gradientUnits="userSpaceOnUse"
   x1="7.0002298"
   y1="1.33285"
   x2="7.0002298"
   y2="10.17937">
		<stop
   offset="0.00559"
   style="stop-color:#3D3B3B"
   id="stop3" />
		<stop
   offset="1"
   style="stop-color:#2D2C2C"
   id="stop4" />
	</linearGradient>
	
	
	
	
	
	
</defs>
<sodipodi:namedview
   bordercolor="#666666"
   borderopacity="1.0"
   fit-margin-bottom="0"
   fit-margin-left="0"
   fit-margin-right="0"
   fit-margin-top="0"
   id="base"
   inkscape:current-layer="svg56722"
   inkscape:cx="7.7678571"
   inkscape:cy="1.6071429"
   inkscape:document-units="mm"
   inkscape:pageopacity="0.0"
   inkscape:pageshadow="2"
   inkscape:window-height="882"
   inkscape:window-maximized="0"
   inkscape:window-width="1600"
   inkscape:window-x="1887"
   inkscape:window-y="342"
   inkscape:zoom="11.2"
   pagecolor="#ffffff"
   showgrid="false"
   units="px"
   inkscape:showpageshadow="2"
   inkscape:pagecheckerboard="0"
   inkscape:deskcolor="#d1d1d1">
	</sodipodi:namedview>
<path
   id="path5785"
   inkscape:connector-curvature="0"
   d="M 0,1.47508 C 0,0.66465 0.63901565,0 1.4181185,0 H 12.040779 c 0.779036,0 1.418119,0.66477 1.418119,1.47508 v 17.69189 c 0,0.81043 -0.639016,1.47406 -1.418119,1.47406 H 1.4181185 C 0.63907334,20.64102 0,19.97739 0,19.16696 Z"
   style="stroke-width:1" />
<g
   id="g5795"
   opacity="0.54"
   transform="matrix(0.96110511,0,0,1,0.05090991,0)"
   style="stroke-width:1.02003">
	<g
   id="g5797"
   style="stroke-width:1.02003">
		<linearGradient
   id="path5805_1_"
   gradientUnits="userSpaceOnUse"
   x1="6.9992099"
   y1="1.33285"
   x2="6.9992099"
   y2="19.459539">
			<stop
   offset="0"
   style="stop-color:#3B3B3B"
   id="stop1" />
			<stop
   offset="1"
   style="stop-color:#242424"
   id="stop2" />
		</linearGradient>
		<path
   id="path5805"
   inkscape:connector-curvature="0"
   fill="url(#path5805_1_)"
   d="m 2.19312,1.33285 c -0.48687,0 -0.88421,0.39734 -0.88421,0.88421 v 0 16.35726 c 0,0.48687 0.3974,0.88522 0.88421,0.88522 v 0 h 9.6132 c 0.48477,0 0.88319,-0.39849 0.88319,-0.88522 v 0 -16.35726 c 0,-0.48687 -0.39842,-0.88421 -0.88319,-0.88421 v 0 z"
   style="fill:url(#path5805_1_);stroke-width:1.02003" />
	</g>
</g>


<path
   id="path5815"
   inkscape:connector-curvature="0"
   fill="url(#path5815_1_)"
   d="m 1.30993,1.33285 h 10.941732 v 8.84651 H 1.30993 Z"
   style="fill:#373e48;fill-opacity:1;stroke-width:1" /><path
   id="path5817"
   inkscape:connector-curvature="0"
   fill="#5e5e5e"
   d="M 1.30993,4.87977 H 12.251662 V 5.75715 H 1.30993 Z"
   style="fill:#6f8a91;fill-opacity:1;stroke-width:1" /><path
   id="path5819"
   inkscape:connector-curvature="0"
   fill="#5e5e5e"
   d="M 1.30993,8.4267 H 12.251662 V 9.30408 H 1.30993 Z"
   style="fill:#6f8a91;fill-opacity:1;stroke-width:1" /><path
   id="path5821"
   inkscape:connector-curvature="0"
   fill="#5e5e5e"
   d="M 1.30993,6.65409 H 12.251662 V 7.53147 H 1.30993 Z"
   style="fill:#6f8a91;fill-opacity:1;stroke-width:1" /><path
   id="path5823"
   inkscape:connector-curvature="0"
   fill="#5e5e5e"
   d="M 1.30993,3.10637 H 12.251662 V 3.98375 H 1.30993 Z"
   style="fill:#6f8a91;fill-opacity:1;stroke-width:1" /><path
   id="path5825"
   inkscape:connector-curvature="0"
   fill="#797979"
   d="M 1.30993,1.33285 H 12.251662 V 2.21023 H 1.30993 Z"
   style="fill:#6f8a91;fill-opacity:1;stroke-width:1" />
</svg>
